<?xml version="1.0" encoding="utf-8"?>
<!-- Generator: Adobe Illustrator 16.0.0, SVG Export Plug-In . SVG Version: 6.00 Build 0)  -->
<!DOCTYPE svg PUBLIC "-//W3C//DTD SVG 1.1//EN" "http://www.w3.org/Graphics/SVG/1.1/DTD/svg11.dtd">
<svg version="1.1" id="Layer_1" xmlns="http://www.w3.org/2000/svg" xmlns:xlink="http://www.w3.org/1999/xlink" x="0px" y="0px"
	 width="100px" height="100px" viewBox="0 0 100 100" enable-background="new 0 0 100 100" xml:space="preserve">
<g>
	<path fill="#D1D3D4" d="M11.85,18.93c0.17,0.07,0.35,0.15,0.52,0.23v-0.01L11.85,18.93z"/>
</g>
<g>
	<path fill="#D1D3D4" d="M10.28,24.82c0,0.67,0.04,1.33,0.09,1.97C10.31,26.15,10.28,25.5,10.28,24.82z M11.17,18.64v0.01
		c0.22,0.09,0.45,0.18,0.68,0.28L11.17,18.64z M88.15,18.93c0.229-0.1,0.46-0.19,0.68-0.28v-0.01L88.15,18.93z"/>
</g>
<g>
	<g>
		<path fill="#D1D3D4" d="M57.49,68.82C57.08,69.39,56.3,70.68,53.6,70.5c-1.689-0.12-3.18-0.7-3.68-1.35
			c-0.52,0.67-2.03,1.21-3.68,1.319c-2.7,0.19-3.48-1.08-3.89-1.649c0.13,0.069,1.33,0.62,3.79,0.42c2.99-0.24,3.78-1.431,3.78-1.45
			c0,0.02,0.79,1.21,3.78,1.45C56.15,69.44,57.36,68.89,57.49,68.82z"/>
	</g>
</g>
<g>
	<path fill="#D1D3D4" d="M37.54,54.98c-2.71,0-4.91,2.199-4.91,4.899s2.2,4.89,4.91,4.89c2.7,0,4.89-2.189,4.89-4.89
		S40.24,54.98,37.54,54.98z M39.739,58.536c0,0.564-0.457,1.021-1.021,1.021s-1.021-0.457-1.021-1.021
		c0-0.563,0.457-1.021,1.021-1.021S39.739,57.973,39.739,58.536z M37.54,63.47c-1.99,0-3.61-1.609-3.61-3.59
		c0-1.99,1.62-3.6,3.61-3.6c0.35,0,0.69,0.05,1.01,0.14c-1.13,0.05-2.03,0.98-2.03,2.13c0,1.17,0.95,2.12,2.12,2.12
		c0.59,0,1.11-0.229,1.5-0.62c0.1-0.1,0.18-0.2,0.26-0.319c0.06-0.091,0.11-0.181,0.16-0.271c0.14-0.27,0.21-0.58,0.21-0.91
		c0-0.1-0.01-0.189-0.02-0.28c0.25,0.48,0.38,1.03,0.38,1.61C41.13,61.86,39.52,63.47,37.54,63.47z"/>
	<path fill="#D1D3D4" d="M50.08,61.83h-0.2c-1.03,0.06-1.8,0.72-1.8,1.54c0,0.83,0.78,1.49,1.75,1.53l0.22,0.02l0.06-0.01
		c1.03-0.05,1.81-0.71,1.81-1.54C51.92,62.55,51.14,61.89,50.08,61.83z"/>
	<path fill="#D1D3D4" d="M97.44,16.3c-0.16,0.02-3.73,0.39-8.61,2.35c-0.22,0.09-0.45,0.18-0.68,0.28l-0.521,0.22v0.01
		c-4.689,2.05-8.87,4.88-12.439,8.44c-7.36,7.36-9.62,11.2-10.311,12.8c-1.64-0.97-6.03-3.1-13.62-3.46h-2.55
		c-7.57,0.36-11.95,2.49-13.59,3.46c-0.69-1.6-2.95-5.44-10.31-12.8c-3.57-3.56-7.75-6.39-12.44-8.44
		c-0.17-0.08-0.35-0.16-0.52-0.23c-0.23-0.1-0.46-0.19-0.68-0.28c-4.88-1.96-8.45-2.33-8.61-2.35l-0.94-0.09l0.25,0.92
		c0.12,0.41,2.92,10.2,10.97,18.49v0.01c0.06,0.05,0.12,0.12,0.17,0.18c0.51,0.58,1.05,1.16,1.6,1.72
		c5.13,5.28,11.54,8.74,13.55,9.75c-0.42,0.81-1.12,2.33-1.43,3.89c-0.33,1.67-0.23,2.93-0.13,4.25c0.11,1.45,0.22,2.96-0.19,5.271
		c-0.26,1.42-0.82,2.8-1.36,4.13c-1.19,2.92-2.42,5.93-0.69,9.609c2.99,6.33,11.63,10.33,24.38,11.271h2.569
		c12.7-0.94,21.341-4.94,24.33-11.271c1.73-3.68,0.5-6.689-0.689-9.609c-0.54-1.33-1.101-2.71-1.36-4.12
		c-0.41-2.32-0.3-3.83-0.189-5.28c0.1-1.32,0.199-2.58-0.131-4.25c-0.31-1.56-1.01-3.08-1.43-3.89c2.01-1.01,8.42-4.47,13.54-9.74
		c0.561-0.57,1.101-1.15,1.61-1.73l0.08-0.09c8.109-8.31,10.939-18.18,11.06-18.59l0.25-0.92L97.44,16.3z M3.44,17.75
		c1.39,0.24,4.11,0.84,7.39,2.17c-0.12,0.51-0.23,1.1-0.33,1.78c-0.03,0.21-0.06,0.43-0.08,0.66c-0.02,0.17-0.04,0.35-0.06,0.54
		c-0.01,0.15-0.02,0.3-0.03,0.46c-0.01,0.19-0.03,0.39-0.03,0.59c-0.01,0.28-0.02,0.57-0.02,0.87c0,0.67,0.04,1.33,0.09,1.97
		c0.04,0.41,0.09,0.81,0.15,1.19c0.04,0.29,0.08,0.57,0.13,0.85c0.05,0.31,0.11,0.61,0.18,0.9c0.06,0.29,0.13,0.58,0.2,0.86
		c0.04,0.18,0.09,0.35,0.14,0.52c0.07,0.25,0.14,0.49,0.21,0.73c0.03,0.1,0.06,0.2,0.09,0.3C6.66,26.25,4.24,20.08,3.44,17.75z
		 M25.56,72.41c0-2.271,1.84-4.12,4.11-4.12c2.26,0,4.11,1.85,4.11,4.12c0,2.27-1.85,4.109-4.11,4.109
		C27.4,76.52,25.56,74.68,25.56,72.41z M70.89,76.23c-2.1,0-3.819-1.711-3.819-3.82c0-2.11,1.72-3.82,3.819-3.82
		c2.101,0,3.811,1.71,3.811,3.82C74.7,74.52,72.99,76.23,70.89,76.23z M88.21,27.74c-0.04,0.31-0.09,0.62-0.14,0.91
		c-0.11,0.56-0.23,1.1-0.351,1.61c-0.08,0.31-0.16,0.6-0.25,0.88c-0.09,0.33-0.18,0.63-0.279,0.92c-0.08,0.25-0.171,0.49-0.25,0.7
		c-0.171,0.46-0.33,0.86-0.48,1.19c-0.24,0.57-0.44,0.94-0.51,1.08c-0.01,0.01-0.01,0.01-0.01,0.02c-0.48,0.53-0.98,1.06-1.49,1.58
		c-5.851,6.02-13.7,9.73-13.78,9.77l-0.64,0.3l0.359,0.62c0.011,0.02,1.2,2.06,1.601,4.1c0.3,1.5,0.21,2.61,0.109,3.9
		c-0.109,1.46-0.229,3.12,0.21,5.609c0.29,1.551,0.87,2.99,1.44,4.38c0.66,1.641,1.31,3.221,1.42,4.9c-0.8-1.56-2.42-2.62-4.28-2.62
		c-2.659,0-4.819,2.16-4.819,4.82s2.16,4.82,4.819,4.82c0.48,0,0.94-0.07,1.38-0.211C68.37,81.09,61.1,83.67,51.24,84.4h-2.45
		c-9.72-0.721-16.93-3.23-20.87-7.19c0.54,0.2,1.14,0.31,1.75,0.31c2.82,0,5.11-2.289,5.11-5.109s-2.29-5.12-5.11-5.12
		c-2.27,0-4.19,1.49-4.86,3.54c-0.03-1.91,0.69-3.68,1.44-5.521c0.57-1.39,1.15-2.829,1.44-4.39c0.44-2.479,0.32-4.14,0.21-5.6
		c-0.1-1.29-0.19-2.4,0.11-3.891c0.4-2.05,1.59-4.09,1.6-4.11l0.36-0.62l-0.64-0.3c-0.08-0.04-7.93-3.75-13.79-9.78
		c-0.5-0.51-1-1.04-1.48-1.57c0-0.01,0-0.01-0.01-0.02c-0.01-0.03-0.04-0.07-0.07-0.14c-0.03-0.05-0.06-0.11-0.09-0.18
		c-0.04-0.08-0.09-0.18-0.14-0.3c-0.02-0.05-0.05-0.11-0.08-0.17c-0.06-0.13-0.12-0.27-0.18-0.42c-0.05-0.11-0.1-0.23-0.15-0.35
		c-0.01-0.04-0.03-0.09-0.05-0.13c-0.03-0.09-0.07-0.18-0.1-0.27c-0.04-0.09-0.07-0.19-0.11-0.29c-0.04-0.1-0.07-0.2-0.11-0.3
		c-0.07-0.21-0.15-0.43-0.22-0.66c-0.08-0.22-0.15-0.46-0.22-0.71c-0.14-0.46-0.27-0.96-0.39-1.49c-0.06-0.29-0.12-0.58-0.18-0.88
		c-0.06-0.3-0.11-0.61-0.16-0.93c-0.13-0.95-0.22-1.95-0.22-2.99c0-0.28,0.01-0.55,0.02-0.82c0.02-0.53,0.06-1.03,0.11-1.49
		c0.01-0.13,0.03-0.26,0.04-0.38c0.06-0.46,0.13-0.89,0.21-1.27c0.03-0.15,0.06-0.29,0.09-0.43c4.46,1.98,8.44,4.7,11.84,8.09
		C33.37,38,34.12,41.48,34.13,41.5l0.16,1.08l0.87-0.66c0.05-0.03,4.39-3.24,13.58-3.68h2.49c9.22,0.44,13.56,3.65,13.609,3.68
		l0.83,0.62l0.2-1.03c0.01-0.03,0.76-3.51,10.24-12.99c3.399-3.39,7.38-6.11,11.84-8.09c0.03,0.14,0.06,0.28,0.09,0.43
		c0.07,0.38,0.15,0.8,0.21,1.27c0.01,0.12,0.03,0.25,0.04,0.38c0.05,0.46,0.09,0.96,0.11,1.49c0.01,0.27,0.02,0.54,0.02,0.82
		C88.42,25.84,88.34,26.82,88.21,27.74z M88.53,32.13c0.04-0.12,0.08-0.23,0.109-0.35c0.061-0.22,0.13-0.44,0.19-0.67
		c0.07-0.24,0.13-0.48,0.2-0.73c0.01-0.06,0.02-0.12,0.04-0.17c0.05-0.23,0.1-0.47,0.149-0.71c0.061-0.28,0.12-0.57,0.17-0.87
		c0.091-0.56,0.17-1.14,0.23-1.74c0-0.03,0.01-0.07,0.01-0.1c0.061-0.64,0.09-1.29,0.09-1.97c0-0.3-0.01-0.59-0.02-0.87
		c0-0.2-0.021-0.4-0.03-0.59c-0.01-0.16-0.02-0.31-0.03-0.46c-0.02-0.19-0.04-0.37-0.06-0.54c-0.021-0.25-0.061-0.49-0.09-0.72
		c-0.03-0.23-0.07-0.45-0.11-0.66c-0.06-0.39-0.14-0.74-0.21-1.06c3.28-1.33,6-1.93,7.39-2.17C95.76,20.08,93.35,26.24,88.53,32.13z
		"/>
	<path fill="#D1D3D4" d="M62.46,54.98c-2.7,0-4.89,2.199-4.89,4.899s2.189,4.89,4.89,4.89s4.9-2.189,4.9-4.89
		S65.16,54.98,62.46,54.98z M61.355,57.516c0.564,0,1.021,0.457,1.021,1.021c0,0.564-0.457,1.021-1.021,1.021
		c-0.563,0-1.021-0.457-1.021-1.021C60.335,57.973,60.792,57.516,61.355,57.516z M62.46,63.47c-1.979,0-3.59-1.609-3.59-3.59
		c0-0.59,0.14-1.149,0.39-1.64c-0.01,0.1-0.02,0.2-0.02,0.31c0,1.17,0.95,2.12,2.109,2.12c1.181,0,2.131-0.95,2.131-2.12
		c0-1.149-0.9-2.08-2.03-2.13c0.319-0.09,0.66-0.14,1.01-0.14c1.99,0,3.6,1.609,3.6,3.6C66.06,61.86,64.45,63.47,62.46,63.47z"/>
</g>
</svg>
