<?xml version="1.0" encoding="utf-8"?>
<!-- Generator: Adobe Illustrator 16.0.0, SVG Export Plug-In . SVG Version: 6.00 Build 0)  -->
<!DOCTYPE svg PUBLIC "-//W3C//DTD SVG 1.1//EN" "http://www.w3.org/Graphics/SVG/1.1/DTD/svg11.dtd">
<svg version="1.1" id="Layer_1" xmlns="http://www.w3.org/2000/svg" xmlns:xlink="http://www.w3.org/1999/xlink" x="0px" y="0px"
	 width="100px" height="100px" viewBox="0 0 100 100" enable-background="new 0 0 100 100" xml:space="preserve">
<path fill="#E1E1E1" d="M88.497,47.838H79.48V30.974c0-8.408-3.192-16.115-8.453-21.744C65.779,3.606,58.292-0.02,50.046,0
	c-8.25-0.02-15.736,3.606-20.979,9.229c-5.264,5.629-8.457,13.336-8.457,21.744v16.864h-9.111V100h77.002L88.497,47.838z
	 M34.581,30.974c0-4.848,1.852-9.152,4.697-12.195c2.869-3.051,6.619-4.809,10.768-4.809c4.146,0,7.896,1.758,10.754,4.809
	c2.863,3.043,4.701,7.348,4.701,12.195v16.864h-30.92V30.974z"/>
</svg>
