<?xml version="1.0" encoding="utf-8"?>
<!-- Generator: Adobe Illustrator 16.0.0, SVG Export Plug-In . SVG Version: 6.00 Build 0)  -->
<!DOCTYPE svg PUBLIC "-//W3C//DTD SVG 1.1//EN" "http://www.w3.org/Graphics/SVG/1.1/DTD/svg11.dtd">
<svg version="1.1" id="Layer_1" xmlns="http://www.w3.org/2000/svg" xmlns:xlink="http://www.w3.org/1999/xlink" x="0px" y="0px"
	 width="100px" height="100px" viewBox="0 0 100 100" enable-background="new 0 0 100 100" xml:space="preserve">
<g id="settings">
	<path fill="#FFFFFF" d="M12.312,55.275L1.759,63.818l12.563,21.105l12.562-5.025l8.543,5.025l2.01,13.066h25.125l2.011-13.066
		l8.542-5.025l12.563,5.025l12.562-21.607l-11.558-8.041V45.225l10.553-8.541L84.674,15.578L72.11,20.602l-8.542-5.023L61.558,2.512
		L36.935,2.01l-2.01,13.568l-8.543,5.023l-12.06-5.023L1.759,37.186l10.553,8.039V55.275z M49.498,67.75c-9.499,0-17.5-8-17.5-17.5
		s8.001-17.5,17.5-17.5s17.5,8,17.5,17.5S58.997,67.75,49.498,67.75z"/>
</g>
<g>
</g>
<g>
</g>
<g>
</g>
<g>
</g>
<g>
</g>
<g>
</g>
</svg>
