<?xml version="1.0" encoding="utf-8"?>
<!-- Generator: Adobe Illustrator 16.0.0, SVG Export Plug-In . SVG Version: 6.00 Build 0)  -->
<!DOCTYPE svg PUBLIC "-//W3C//DTD SVG 1.1//EN" "http://www.w3.org/Graphics/SVG/1.1/DTD/svg11.dtd">
<svg version="1.1" id="Layer_1" xmlns="http://www.w3.org/2000/svg" xmlns:xlink="http://www.w3.org/1999/xlink" x="0px" y="0px"
	 width="100px" height="100px" viewBox="0 0 100 100" enable-background="new 0 0 100 100" xml:space="preserve">
<g>
	<polygon fill="#FFFFFF" points="0,34.878 0,49.999 0,65.12 24.624,65.12 49.277,87.802 49.277,12.198 24.624,34.878 	"/>
	<path fill="#FFFFFF" d="M100,49.999c0,13.363-5.089,25.616-13.534,35.191l-4.723-3.861l-4.872-3.985l-4.695-3.84l-9.894-8.085
		v-0.283c3.89-3.9,6.284-9.239,6.284-15.137c0-5.896-2.395-11.235-6.284-15.137v-0.283l9.884-8.084l4.705-3.84l4.872-3.984
		l4.723-3.863C94.911,24.384,100,36.638,100,49.999z"/>
</g>
<g>
</g>
<g>
</g>
<g>
</g>
<g>
</g>
<g>
</g>
<g>
</g>
</svg>
