<?xml version="1.0" encoding="utf-8"?>
<!-- Generator: Adobe Illustrator 16.0.0, SVG Export Plug-In . SVG Version: 6.00 Build 0)  -->
<!DOCTYPE svg PUBLIC "-//W3C//DTD SVG 1.1//EN" "http://www.w3.org/Graphics/SVG/1.1/DTD/svg11.dtd">
<svg version="1.1" id="Layer_1" xmlns="http://www.w3.org/2000/svg" xmlns:xlink="http://www.w3.org/1999/xlink" x="0px" y="0px"
	 width="100px" height="100px" viewBox="0 0 100 100" enable-background="new 0 0 100 100" xml:space="preserve">
<g>
	<g>
		<path fill="#D1D3D4" d="M38.02,75.69c0,0.279-0.1,0.54-0.3,0.739c-0.399,0.391-1.09,0.391-1.479,0L24.98,65.18v22.48
			c0,0.58-0.471,1.05-1.051,1.05c-0.569,0-1.04-0.47-1.04-1.05V65.17L11.63,76.43c-0.39,0.391-1.08,0.391-1.47,0
			C9.96,76.23,9.85,75.97,9.85,75.69c0-0.28,0.11-0.54,0.311-0.74L23.93,61.18l0.11,0.101l13.68,13.67
			C37.92,75.15,38.02,75.41,38.02,75.69z"/>
	</g>
	<g>
		<path fill="#D1D3D4" d="M63.79,51.46c-0.42,0.4-1.09,0.39-1.48,0L51.05,40.2v47.46c0,0.58-0.47,1.05-1.05,1.05
			s-1.05-0.47-1.05-1.05V40.2L37.7,51.46c-0.391,0.4-1.101,0.39-1.48,0c-0.399-0.41-0.41-1.07,0-1.479L50,36.2l0.1,0.109
			L63.79,49.98C64.19,50.39,64.19,51.05,63.79,51.46z"/>
	</g>
	<g>
		<path fill="#D1D3D4" d="M89.85,26.48c-0.409,0.399-1.09,0.39-1.479,0L77.11,15.23v72.43c0,0.58-0.471,1.05-1.051,1.05
			c-0.569,0-1.04-0.47-1.04-1.05V15.23L63.76,26.48c-0.39,0.39-1.08,0.39-1.47,0c-0.2-0.2-0.31-0.461-0.31-0.74
			c0-0.28,0.109-0.54,0.3-0.74L76.06,11.23l0.11,0.1L89.84,25C90.25,25.41,90.25,26.07,89.85,26.48z"/>
	</g>
</g>
</svg>
