<?xml version="1.0" encoding="utf-8"?>
<!-- Generator: Adobe Illustrator 16.0.0, SVG Export Plug-In . SVG Version: 6.00 Build 0)  -->
<!DOCTYPE svg PUBLIC "-//W3C//DTD SVG 1.1//EN" "http://www.w3.org/Graphics/SVG/1.1/DTD/svg11.dtd">
<svg version="1.1" id="Layer_1" xmlns="http://www.w3.org/2000/svg" xmlns:xlink="http://www.w3.org/1999/xlink" x="0px" y="0px"
	 width="100px" height="100px" viewBox="0 0 100 100" enable-background="new 0 0 100 100" xml:space="preserve">
<g>
	<path fill="#FFFFFF" d="M53.111,53.114v17.501h17.116c1.125-5.543,1.776-11.421,1.941-17.501H53.111z"/>
	<path fill="#FFFFFF" d="M92.313,76.844H75.262c-2.223,8.566-5.486,15.643-9.543,20.732C76.617,93.963,86.109,86.581,92.313,76.844z
		"/>
	<path fill="#FFFFFF" d="M70.228,29.387H53.111v17.499h19.058C72.004,40.805,71.353,34.927,70.228,29.387z"/>
	<path fill="#FFFFFF" d="M53.111,0.373v22.784H68.72C65.196,10.784,59.469,2.442,53.111,0.373z"/>
	<path fill="#FFFFFF" d="M92.314,23.156C86.119,13.42,76.626,6.039,65.719,2.423c4.057,5.091,7.321,12.168,9.543,20.733H92.314z"/>
	<path fill="#FFFFFF" d="M95.678,70.615c2.499-5.528,3.948-11.408,4.315-17.501H78.398c-0.152,6.197-0.738,12.073-1.745,17.501
		H95.678z"/>
	<path fill="#FFFFFF" d="M78.398,46.886h21.599c-0.376-6.104-1.825-11.983-4.315-17.499H76.652
		C77.66,34.828,78.247,40.703,78.398,46.886z"/>
	<path fill="#FFFFFF" d="M46.882,23.156V0.372C40.53,2.438,34.801,10.78,31.271,23.156H46.882z"/>
	<path fill="#FFFFFF" d="M4.316,29.387C1.818,34.912,0.368,40.79-0.003,46.886h21.597c0.149-6.177,0.734-12.052,1.744-17.499H4.316z
		"/>
	<path fill="#FFFFFF" d="M21.594,53.114H-0.003C0.37,59.213,1.82,65.093,4.316,70.615h19.021
		C22.326,65.156,21.741,59.281,21.594,53.114z"/>
	<path fill="#FFFFFF" d="M29.765,70.615h17.119V53.114H27.829C27.992,59.196,28.642,65.074,29.765,70.615z"/>
	<path fill="#FFFFFF" d="M7.682,76.844c6.198,9.737,15.69,17.12,26.599,20.734c-4.061-5.095-7.327-12.171-9.549-20.734H7.682z"/>
	<path fill="#FFFFFF" d="M53.111,76.844v22.785c6.356-2.066,12.085-10.409,15.609-22.785H53.111z"/>
	<path fill="#FFFFFF" d="M46.882,99.628V76.844H31.271C34.8,89.216,40.529,97.556,46.882,99.628z"/>
	<path fill="#FFFFFF" d="M46.884,46.886V29.387H29.765c-1.123,5.54-1.773,11.417-1.936,17.499H46.884z"/>
	<path fill="#FFFFFF" d="M7.682,23.156h17.05c2.224-8.569,5.488-15.646,9.542-20.732C23.373,6.038,13.883,13.419,7.682,23.156z"/>
</g>
<g>
</g>
<g>
</g>
<g>
</g>
<g>
</g>
<g>
</g>
<g>
</g>
</svg>
