<?xml version="1.0" encoding="utf-8"?>
<!-- Generator: Adobe Illustrator 16.0.0, SVG Export Plug-In . SVG Version: 6.00 Build 0)  -->
<!DOCTYPE svg PUBLIC "-//W3C//DTD SVG 1.1//EN" "http://www.w3.org/Graphics/SVG/1.1/DTD/svg11.dtd">
<svg version="1.1" id="Layer_1" xmlns="http://www.w3.org/2000/svg" xmlns:xlink="http://www.w3.org/1999/xlink" x="0px" y="0px"
	 width="100px" height="100px" viewBox="0 0 100 100" enable-background="new 0 0 100 100" xml:space="preserve">
<path fill="#FFFFFF" d="M0,0v70.17h19.31L19.29,100L48.9,70.17H100V0H0z M58.479,11.364c5.126,0,9.579,4.451,9.579,9.58
	c0,5.128-4.453,9.579-9.579,9.579c-1.602,0-3.137-0.434-4.491-1.188c1.335-2.056,2.121-4.482,2.121-7.056
	c0-3.352-1.325-6.461-3.471-8.816C54.277,12.163,56.315,11.364,58.479,11.364z M42.912,11.863c5.573,0,10.414,4.841,10.414,10.415
	c0,5.576-4.841,10.415-10.414,10.415c-5.575,0-10.415-4.839-10.415-10.415C32.497,16.704,37.337,11.863,42.912,11.863z
	 M25.555,58.236c0-12.23,8.234-22.071,17.357-22.071c9.122,0,17.356,9.841,17.356,22.071H25.555z M62.746,54.021
	c-1.151-7.928-5.475-14.696-11.228-18.161c2.14-1.368,4.515-2.143,6.961-2.143c8.392,0,15.966,9.054,15.966,20.304H62.746z"/>
</svg>
