<?xml version="1.0" encoding="utf-8"?>
<!-- Generator: Adobe Illustrator 16.0.0, SVG Export Plug-In . SVG Version: 6.00 Build 0)  -->
<!DOCTYPE svg PUBLIC "-//W3C//DTD SVG 1.1//EN" "http://www.w3.org/Graphics/SVG/1.1/DTD/svg11.dtd">
<svg version="1.1" id="Layer_1" xmlns="http://www.w3.org/2000/svg" xmlns:xlink="http://www.w3.org/1999/xlink" x="0px" y="0px"
	 width="100px" height="100px" viewBox="0 0 100 100" enable-background="new 0 0 100 100" xml:space="preserve">
<g>
	<rect x="6.25" y="18.75" fill="none" width="12.5" height="12.5"/>
	<rect x="6.25" y="43.75" fill="none" width="12.5" height="12.5"/>
	<rect x="6.25" y="68.75" fill="none" width="12.5" height="12.5"/>
	<rect x="81.25" y="68.75" fill="none" width="12.5" height="12.5"/>
	<rect x="81.25" y="43.75" fill="none" width="12.5" height="12.5"/>
	<rect x="81.25" y="18.75" fill="none" width="12.5" height="12.5"/>
	<path fill="#FFFFFF" d="M0,12.5v75h100v-75H0z M39.75,68.75v-37.5l25,18.75L39.75,68.75z M18.75,81.25H6.25v-12.5h12.5V81.25z
		 M18.75,56.25H6.25v-12.5h12.5V56.25z M18.75,31.25H6.25v-12.5h12.5V31.25z M93.75,81.25h-12.5v-12.5h12.5V81.25z M93.75,56.25
		h-12.5v-12.5h12.5V56.25z M93.75,31.25h-12.5v-12.5h12.5V31.25z"/>
</g>
<g>
</g>
<g>
</g>
<g>
</g>
<g>
</g>
<g>
</g>
<g>
</g>
</svg>
