<?xml version="1.0" encoding="utf-8"?>
<!-- Generator: Adobe Illustrator 16.0.0, SVG Export Plug-In . SVG Version: 6.00 Build 0)  -->
<!DOCTYPE svg PUBLIC "-//W3C//DTD SVG 1.1//EN" "http://www.w3.org/Graphics/SVG/1.1/DTD/svg11.dtd">
<svg version="1.1" id="Layer_1" xmlns="http://www.w3.org/2000/svg" xmlns:xlink="http://www.w3.org/1999/xlink" x="0px" y="0px"
	 width="100px" height="100px" viewBox="0 0 100 100" enable-background="new 0 0 100 100" xml:space="preserve">
<g>
	<path fill="#D1D3D4" d="M58.645,84.588H41.36c-0.557,0-1.009,0.45-1.009,1.006c0,0.555,0.452,1.006,1.009,1.006h17.285
		c0.554,0,1.006-0.451,1.006-1.006C59.65,85.038,59.198,84.588,58.645,84.588z"/>
	<path fill="#D1D3D4" d="M56.723,90.487H43.28c-0.555,0-1.006,0.452-1.006,1.008c0,0.555,0.451,1.005,1.006,1.005h13.443
		c0.555,0,1.007-0.45,1.007-1.005C57.729,90.939,57.277,90.487,56.723,90.487z"/>
	<path fill="#D1D3D4" d="M39.429,43.894c-0.003-0.006-0.006-0.012-0.009-0.018C39.423,43.881,39.426,43.888,39.429,43.894z"/>
	<path fill="#D1D3D4" d="M39.374,43.751c-0.001-0.005-0.003-0.008-0.005-0.013C39.371,43.743,39.373,43.747,39.374,43.751z"/>
	<path fill="#D1D3D4" d="M39.42,43.876c-0.018-0.042-0.032-0.083-0.046-0.125C39.388,43.793,39.402,43.834,39.42,43.876z"/>
	<path fill="#D1D3D4" d="M60.22,43.3c0,0.08-0.01,0.16-0.04,0.24c-0.02,0.08-0.05,0.16-0.09,0.24c-0.01,0.03-0.02,0.05-0.04,0.08
		c-0.16,0.29-0.319,0.59-0.479,0.88c-2.41,4.5-3.811,8.229-4.63,12.319c-0.881,4.41-1.051,9.15-1.061,15.37c0,0.551-0.45,1-1,1
		s-1-0.449-1-1c0.01-6.39,0.19-11.26,1.09-15.76c0.71-3.56,1.84-6.86,3.66-10.59c0.12-0.23,0.24-0.47,0.36-0.71
		c-0.24,0.12-0.48,0.24-0.71,0.35c-0.94,0.45-1.83,0.8-2.7,0.8c-0.83,0-1.58-0.3-2.38-0.95l-0.82-0.67L50,44.59l-0.38,0.31
		l-0.82,0.66c-0.8,0.65-1.55,0.96-2.38,0.96c-0.87,0-1.76-0.35-2.69-0.8c-0.24-0.11-0.48-0.23-0.71-0.35
		c0.12,0.24,0.23,0.47,0.35,0.71c1.82,3.73,2.96,7.03,3.66,10.59c0.9,4.5,1.08,9.37,1.09,15.76c0,0.551-0.45,1-1,1
		c-0.55,0-1-0.449-1-1c-0.01-6.239-0.18-10.989-1.06-15.37c-0.82-4.079-2.21-7.819-4.63-12.319c-0.16-0.29-0.32-0.6-0.5-0.91
		c-0.01-0.02-0.02-0.04-0.03-0.06c-0.01-0.02-0.02-0.04-0.03-0.06c0-0.01-0.01-0.02-0.01-0.03c-0.01-0.02-0.02-0.05-0.03-0.07
		c0-0.01,0-0.01,0-0.02c-0.09-0.27-0.05-0.56,0.09-0.79c0.04-0.08,0.1-0.15,0.16-0.21c0.06-0.07,0.14-0.12,0.22-0.17
		c0.07-0.04,0.15-0.07,0.23-0.09c0.08-0.02,0.17-0.03,0.25-0.03c0.09,0,0.18,0.01,0.26,0.03c0.02,0,0.03,0.01,0.05,0.01
		c0.38,0.12,0.74,0.26,1.08,0.41c0.56,0.24,1.09,0.5,1.6,0.76l0.09,0.04c1,0.51,1.76,0.87,2.51,0.87c0.44,0,0.84-0.14,1.17-0.42
		l0.98-0.79l0.85-0.7h0.01c0.06-0.05,0.12-0.08,0.19-0.11c0.07-0.04,0.14-0.06,0.21-0.08c0.07-0.01,0.14-0.02,0.22-0.02
		c0.06,0,0.11,0,0.17,0.01c0.11,0.02,0.22,0.06,0.32,0.11c0.05,0.03,0.09,0.06,0.14,0.1l0.03,0.02l0.82,0.67l0.979,0.8
		c0.33,0.27,0.73,0.41,1.17,0.41c0.79,0,1.67-0.44,2.51-0.86l0.091-0.05c0.489-0.25,1.02-0.51,1.6-0.76
		c0.35-0.15,0.71-0.29,1.09-0.41c0.01,0,0.03-0.01,0.04-0.01c0.08-0.02,0.17-0.03,0.26-0.03c0.17,0,0.34,0.04,0.48,0.12
		c0.06,0.03,0.12,0.07,0.17,0.11c0.05,0.04,0.09,0.09,0.13,0.14c0.03,0.04,0.06,0.07,0.08,0.11c0.04,0.07,0.08,0.15,0.1,0.24
		C60.21,43.11,60.22,43.21,60.22,43.3z"/>
	<path fill="#D1D3D4" d="M41.04,42.33c-0.08-0.02-0.17-0.03-0.26-0.03c-0.08,0-0.17,0.01-0.25,0.03c0.08-0.03,0.16-0.04,0.25-0.04
		C40.87,42.29,40.96,42.3,41.04,42.33z"/>
	<path fill="#D1D3D4" d="M50.001,15.274c0.555,0,1.007-0.451,1.007-1.006V8.506c0-0.555-0.453-1.006-1.007-1.006
		s-1.007,0.452-1.007,1.006v5.761C48.995,14.823,49.447,15.274,50.001,15.274z"/>
	<path fill="#D1D3D4" d="M50.17,42.31C50.11,42.3,50.06,42.3,50,42.3c-0.08,0-0.15,0.01-0.22,0.02c0.07-0.02,0.14-0.03,0.22-0.03
		C50.06,42.29,50.12,42.3,50.17,42.31z"/>
	<path fill="#D1D3D4" d="M59.7,42.42c-0.141-0.08-0.311-0.12-0.48-0.12c-0.09,0-0.18,0.01-0.26,0.03c0.08-0.02,0.17-0.04,0.26-0.04
		C59.39,42.29,59.56,42.33,59.7,42.42z"/>
	<path fill="#D1D3D4" d="M60.18,43.54c-0.01,0.08-0.04,0.15-0.069,0.22c-0.021,0.03-0.04,0.06-0.061,0.1
		c0.021-0.03,0.03-0.05,0.04-0.08C60.13,43.7,60.16,43.62,60.18,43.54z"/>
	<path fill="#D1D3D4" d="M68.37,27.18c-2.43-2.43-5.26-4.32-8.44-5.64c-3.16-1.31-6.5-1.97-9.92-1.97c-3.33,0-6.57,0.62-9.64,1.85
		l-0.29,0.12c-3.18,1.32-6.01,3.21-8.44,5.64c-2.41,2.4-4.29,5.22-5.61,8.37v0.01L26,35.62c-1.31,3.15-1.97,6.49-1.97,9.92
		c0,2.74,0.43,5.45,1.28,8.05c0.84,2.601,2.09,5.04,3.72,7.26c2.76,3.78,4.93,6.17,6.68,8.08l0.05,0.051l0.02,0.01
		c3.04,3.34,4.57,5.02,4.57,10.16c0,0.55,0.46,1,1.01,1h17.41c0.551,0,1-0.45,1-1c0-5.19,1.44-6.78,4.58-10.25l0.03-0.03
		c1.74-1.93,3.9-4.33,6.601-8.021c1.619-2.22,2.88-4.659,3.72-7.26c0.85-2.6,1.28-5.31,1.28-8.05
		C75.98,38.6,73.27,32.08,68.37,27.18z M72.78,52.98C72,55.38,70.85,57.63,69.36,59.67c-2.7,3.69-4.9,6.12-6.5,7.89
		c-3.311,3.66-4.82,5.33-5.07,10.131l-0.021,0.46H42.35l-0.02-0.46c-0.25-4.771-1.77-6.421-5.09-10.051l-0.31-0.35h0.01
		c-1.69-1.84-3.76-4.15-6.3-7.63c-1.49-2.04-2.64-4.29-3.42-6.69c-0.78-2.39-1.18-4.89-1.18-7.43c0-3.17,0.61-6.26,1.81-9.15
		l0.04-0.09c1.2-2.88,2.94-5.47,5.17-7.7c2.25-2.25,4.86-4,7.76-5.2l0.69-0.33v0.06c2.7-1.03,5.55-1.55,8.49-1.55
		c3.19,0,6.27,0.61,9.17,1.81c2.91,1.21,5.521,2.96,7.771,5.21c4.529,4.53,7.02,10.54,7.02,16.94
		C73.96,48.09,73.56,50.59,72.78,52.98z"/>
	<path fill="#D1D3D4" d="M66.458,19.677c0.152,0.087,0.325,0.132,0.498,0.132c0.359,0,0.692-0.191,0.871-0.5l2.879-4.988
		c0.275-0.48,0.111-1.094-0.367-1.367c-0.151-0.087-0.322-0.133-0.497-0.133c-0.358,0-0.692,0.192-0.869,0.501l-2.881,4.988
		C65.818,18.79,65.982,19.403,66.458,19.677z"/>
	<path fill="#D1D3D4" d="M32.177,19.31c0.177,0.308,0.51,0.5,0.869,0.5c0.173,0,0.345-0.045,0.496-0.132
		c0.23-0.131,0.395-0.345,0.465-0.603c0.07-0.258,0.036-0.529-0.097-0.76l-2.878-4.991c-0.178-0.308-0.511-0.5-0.87-0.5
		c-0.174,0-0.347,0.045-0.497,0.132c-0.23,0.132-0.396,0.348-0.465,0.605c-0.07,0.259-0.035,0.527,0.096,0.757L32.177,19.31z"/>
	<path fill="#D1D3D4" d="M21.734,30.357l-4.988-2.876c-0.152-0.087-0.325-0.133-0.5-0.133c-0.358,0-0.691,0.191-0.868,0.5
		c-0.132,0.231-0.166,0.5-0.097,0.758c0.07,0.258,0.236,0.473,0.469,0.606l4.989,2.88c0.15,0.087,0.321,0.132,0.495,0.132
		c0.358,0,0.691-0.191,0.868-0.499C22.377,31.245,22.211,30.631,21.734,30.357z"/>
	<path fill="#D1D3D4" d="M83.751,27.345c-0.173,0-0.345,0.046-0.495,0.131l-4.99,2.881c-0.478,0.274-0.642,0.887-0.368,1.367
		c0.177,0.308,0.51,0.5,0.87,0.5c0.174,0,0.346-0.045,0.496-0.131l4.99-2.881c0.229-0.132,0.395-0.348,0.465-0.606
		c0.069-0.259,0.036-0.529-0.097-0.76C84.445,27.536,84.111,27.345,83.751,27.345z"/>
</g>
</svg>
