<?xml version="1.0" encoding="utf-8"?>
<!-- Generator: Adobe Illustrator 16.0.0, SVG Export Plug-In . SVG Version: 6.00 Build 0)  -->
<!DOCTYPE svg PUBLIC "-//W3C//DTD SVG 1.1//EN" "http://www.w3.org/Graphics/SVG/1.1/DTD/svg11.dtd">
<svg version="1.1" id="Layer_1" xmlns="http://www.w3.org/2000/svg" xmlns:xlink="http://www.w3.org/1999/xlink" x="0px" y="0px"
	 width="100px" height="100px" viewBox="0 0 100 100" enable-background="new 0 0 100 100" xml:space="preserve">
<g>
	<path fill="#D1D3D4" d="M66.484,13.127c-5.795,0-11.361,2.227-15.676,6.27l-0.807,0.757l-0.808-0.755
		c-4.333-4.044-9.901-6.272-15.677-6.272C20.549,13.127,10,24.152,10,37.704c0,3.434,0.563,6.926,1.674,10.379l0.008,0.026
		c0.1,0.329,1.003,3.022,1.808,4.583l0.011,0.021l0.01,0.021C17.5,61.314,24.78,69.66,35.149,77.537
		c7.6,5.756,13.95,9.026,14.343,9.226c0.178,0.069,0.366,0.11,0.508,0.11c0.167,0,0.325-0.033,0.436-0.092l0.025-0.014
		c0.064-0.031,6.543-3.291,14.39-9.248c10.341-7.842,17.618-16.182,21.632-24.788c0.025-0.062,0.055-0.12,0.089-0.175
		c0.812-1.834,1.438-3.429,1.767-4.491C89.456,44.383,90,40.993,90,37.704C90,24.152,79.451,13.127,66.484,13.127z M85.013,50.967
		c-0.107,0.258-0.202,0.471-0.266,0.615c-0.022,0.049-0.04,0.088-0.051,0.115l-0.011,0.031l-0.028,0.061
		c-4.819,10.344-14.065,18.766-20.974,24.01c-6.161,4.683-11.6,7.736-13.12,8.561l-0.566,0.307l-0.565-0.309
		c-1.982-1.082-7.229-4.084-13.114-8.557c-6.908-5.225-16.15-13.624-20.977-23.975c-0.025-0.045-0.061-0.115-0.093-0.208
		c-0.12-0.247-0.248-0.534-0.372-0.813l-0.742-1.669h22.473c0.41,0,0.786-0.25,0.936-0.621l5.744-13.672l12.487,29.776
		c0.153,0.37,0.539,0.629,0.938,0.629c0.41,0,0.786-0.25,0.936-0.621l6.424-15.297h21.622L85.013,50.967z M86.668,46.539
		l-0.336,1.195l-1.178-0.394c-0.083-0.028-0.203-0.045-0.314-0.045H63.41c-0.41,0-0.786,0.25-0.936,0.621l-5.766,13.647
		l-12.483-29.77c-0.153-0.371-0.539-0.629-0.939-0.629c-0.41,0-0.785,0.25-0.936,0.621l-6.423,15.297h-22.44l-0.243-0.862
		c-0.803-2.848-1.21-5.726-1.21-8.554c0-12.42,9.637-22.525,21.482-22.525c5.935,0,11.666,2.618,15.724,7.181
		c0.198,0.223,0.474,0.345,0.777,0.345s0.579-0.123,0.776-0.344c4.108-4.631,9.692-7.182,15.726-7.182
		c11.835,0,21.464,10.104,21.464,22.525C87.983,40.482,87.553,43.384,86.668,46.539z"/>
</g>
</svg>
