<?xml version="1.0" encoding="utf-8"?>
<!-- Generator: Adobe Illustrator 16.0.0, SVG Export Plug-In . SVG Version: 6.00 Build 0)  -->
<!DOCTYPE svg PUBLIC "-//W3C//DTD SVG 1.1//EN" "http://www.w3.org/Graphics/SVG/1.1/DTD/svg11.dtd">
<svg version="1.1" id="Layer_1" xmlns="http://www.w3.org/2000/svg" xmlns:xlink="http://www.w3.org/1999/xlink" x="0px" y="0px"
	 width="100px" height="100px" viewBox="0 0 100 100" enable-background="new 0 0 100 100" xml:space="preserve">
<g>
	<g>
		<path fill="#D1D3D4" d="M71.889,17.758l-9.957-9.957C61.734,7.613,61.472,7.5,61.198,7.5H37.691c-0.272,0-0.536,0.113-0.733,0.301
			l-9.957,9.957c-0.188,0.197-0.302,0.461-0.302,0.734v47.455c0,0.573,0.471,1.043,1.044,1.043h15.064v24.476
			c0,0.573,0.47,1.034,1.034,1.034h11.207c0.564,0,1.034-0.461,1.034-1.034V66.99h15.072c0.574,0,1.035-0.47,1.035-1.043V18.492
			C72.19,18.22,72.086,17.956,71.889,17.758z M44.886,90.422V66.99h9.119v23.432H44.886z M70.112,64.912H28.777V18.925l9.347-9.347
			h22.642l9.347,9.347V64.912z"/>
	</g>
</g>
</svg>
