<?xml version="1.0" encoding="utf-8"?>
<!-- Generator: Adobe Illustrator 16.0.0, SVG Export Plug-In . SVG Version: 6.00 Build 0)  -->
<!DOCTYPE svg PUBLIC "-//W3C//DTD SVG 1.1//EN" "http://www.w3.org/Graphics/SVG/1.1/DTD/svg11.dtd">
<svg version="1.1" id="Layer_1" xmlns="http://www.w3.org/2000/svg" xmlns:xlink="http://www.w3.org/1999/xlink" x="0px" y="0px"
	 width="100px" height="100px" viewBox="0 0 100 100" enable-background="new 0 0 100 100" xml:space="preserve">
<g>
	<g>
		<g>
			<path fill="#D1D3D4" d="M15.549,12.5v75h68.902v-75H15.549z M72.271,24.688v-10.28h10.279v10.28H72.271z M27.729,85.602H17.449
				V75.322h10.279V85.602z M27.729,73.412H17.449v-10.27h10.279V73.412z M27.729,61.233H17.449V50.955h10.279V61.233z
				 M27.729,49.045H17.449v-10.27h10.279V49.045z M27.729,36.867H17.449v-10.27h10.279V36.867z M27.729,24.688H17.449v-10.28h10.279
				V24.688z M70.363,85.602H29.637V50.955h40.727V85.602z M70.363,49.045H29.637V14.408h40.727V49.045z M82.551,85.602H72.271
				V75.322h10.279V85.602z M82.551,73.412H72.271v-10.27h10.279V73.412z M82.551,61.233H72.271V50.955h10.279V61.233z
				 M82.551,49.045H72.271v-10.27h10.279V49.045z M82.551,36.867H72.271v-10.27h10.279V36.867z"/>
		</g>
	</g>
</g>
</svg>
