<?xml version="1.0" encoding="utf-8"?>
<!-- Generator: Adobe Illustrator 16.0.0, SVG Export Plug-In . SVG Version: 6.00 Build 0)  -->
<!DOCTYPE svg PUBLIC "-//W3C//DTD SVG 1.1//EN" "http://www.w3.org/Graphics/SVG/1.1/DTD/svg11.dtd">
<svg version="1.1" id="Layer_1" xmlns="http://www.w3.org/2000/svg" xmlns:xlink="http://www.w3.org/1999/xlink" x="0px" y="0px"
	 width="100px" height="100px" viewBox="0 0 100 100" enable-background="new 0 0 100 100" xml:space="preserve">
<g>
	<g>
		<path fill="#D1D3D4" d="M89.936,40.906c-0.149-0.466-0.565-0.812-1.06-0.861l-26.802-2.772L51.153,12.639
			c-0.208-0.455-0.653-0.742-1.148-0.742c-0.505,0-0.951,0.287-1.158,0.742L37.925,37.272l-26.791,2.772
			c-0.495,0.049-0.921,0.396-1.069,0.861c-0.158,0.476-0.02,1,0.356,1.326l20.05,18l-5.644,26.347
			c-0.1,0.485,0.089,0.99,0.495,1.277c0.386,0.287,0.95,0.316,1.366,0.069l23.316-13.495l23.307,13.505
			c0.198,0.109,0.406,0.168,0.633,0.168c0.269,0,0.525-0.089,0.743-0.247c0.396-0.287,0.595-0.792,0.485-1.277L69.54,60.232
			l20.038-18C89.956,41.906,90.094,41.382,89.936,40.906z M33.084,60.044c0.089-0.436-0.059-0.9-0.396-1.197L14.213,42.263
			l24.702-2.564c0.446-0.05,0.833-0.327,1.021-0.743l10.069-22.702l10.06,22.702c0.188,0.416,0.584,0.693,1.029,0.743l24.693,2.564
			L67.312,58.847c-0.336,0.297-0.485,0.762-0.387,1.197l5.188,24.288L50.628,71.886c-0.188-0.118-0.406-0.168-0.623-0.168
			c-0.228,0-0.446,0.05-0.634,0.168L27.886,84.332L33.084,60.044z"/>
	</g>
</g>
</svg>
