<?xml version="1.0" encoding="utf-8"?>
<!-- Generator: Adobe Illustrator 16.0.0, SVG Export Plug-In . SVG Version: 6.00 Build 0)  -->
<!DOCTYPE svg PUBLIC "-//W3C//DTD SVG 1.1//EN" "http://www.w3.org/Graphics/SVG/1.1/DTD/svg11.dtd">
<svg version="1.1" id="Layer_1" xmlns="http://www.w3.org/2000/svg" xmlns:xlink="http://www.w3.org/1999/xlink" x="0px" y="0px"
	 width="100px" height="100px" viewBox="0 0 100 100" enable-background="new 0 0 100 100" xml:space="preserve">
<g>
	<path fill="#D1D3D4" d="M82.221,34.758C74.67,19.941,60.6,16.831,50.125,16.831h-0.25c-10.475,0-24.546,3.11-32.096,17.927
		c-6.283,12.34-5.38,27.773-4.655,40.175c0.051,0.969,0.984,1.018,1.171,1.018c0.301,0,0.578-0.094,0.718-0.236
		c0.129-0.145,0.181-0.34,0.164-0.615l-0.191-3.443l-0.086-3.926h2.386c0.154,0,0.307,0.019,0.49,0.061
		c1.442,0,2.765,0.03,3.931,0.09l0.778,0.035l0.107,0.539c1.872,9.448,9.974,14.175,17.173,14.668l0.65,0.046v-0.392
		c0.031-5.99,0.111-11.965,0.189-17.744l0.002-0.195c0.078-5.867,0.159-11.936,0.188-17.897v-0.359l-0.608,0.009
		c-11.968,0.192-17.655,8.558-17.982,16.761c-0.01,0.343-0.02,0.676-0.02,1.01v0.699h-7.346l-0.084-4.188l0.01-0.816
		c0.171-7.874,1.158-14.291,3.105-20.194c2.029-6.158,5.76-11.297,10.79-14.862c5.448-3.874,12.248-5.926,20.215-6.1h2.265
		c7.956,0.173,14.753,2.226,20.199,6.1c5.03,3.565,8.762,8.704,10.79,14.861c1.947,5.903,2.934,12.321,3.105,20.201l0.01,0.832
		l-0.084,4.166h-7.346v-0.699c0-0.329-0.01-0.656-0.02-1.003c-0.328-8.207-6.015-16.575-17.981-16.768l-0.608-0.009v0.355
		c0.029,5.967,0.109,12.036,0.188,17.905l0.003,0.173c0.078,5.812,0.159,11.823,0.188,17.767v0.388l0.652-0.047
		c7.198-0.492,15.299-5.218,17.172-14.667l0.106-0.539l0.773-0.035c1.136-0.058,2.418-0.089,3.874-0.089c0.023,0,0.047,0,0.071,0
		c0.163-0.042,0.321-0.062,0.481-0.062H85.1l-0.086,3.949l-0.19,3.426c-0.017,0.264,0.033,0.464,0.145,0.588
		c0.157,0.164,0.426,0.258,0.736,0.258c0.187,0,1.12-0.053,1.175-1.085C87.603,62.494,88.504,47.098,82.221,34.758z M37.106,49.76
		l1.528-0.018v1.531c-0.02,4.554-0.069,9.106-0.12,13.725c-0.05,4.527-0.1,9.066-0.11,13.611l-0.019,1.609l-1.61-0.131
		c-6.157-0.527-12.215-6.313-11.88-16.35C25.115,56.902,28.976,49.93,37.106,49.76z M63.221,80.088l-1.607,0.131l-0.02-1.617
		c-0.01-4.537-0.06-9.076-0.11-13.65c-0.05-4.565-0.099-9.121-0.119-13.681v-1.528l1.534,0.018
		c8.125,0.17,11.984,7.142,12.205,13.977C75.438,73.773,69.38,79.561,63.221,80.088z"/>
</g>
</svg>
