<?xml version="1.0" encoding="utf-8"?>
<!-- Generator: Adobe Illustrator 16.0.0, SVG Export Plug-In . SVG Version: 6.00 Build 0)  -->
<!DOCTYPE svg PUBLIC "-//W3C//DTD SVG 1.1//EN" "http://www.w3.org/Graphics/SVG/1.1/DTD/svg11.dtd">
<svg version="1.1" id="Layer_1" xmlns="http://www.w3.org/2000/svg" xmlns:xlink="http://www.w3.org/1999/xlink" x="0px" y="0px"
	 width="100px" height="100px" viewBox="0 0 100 100" enable-background="new 0 0 100 100" xml:space="preserve">
<g>
	<polygon fill="#D1D3D4" points="38.531,67.011 36.527,67.011 36.527,73.246 30.292,73.246 30.292,75.251 36.527,75.251 
		36.527,81.486 38.531,81.486 38.531,75.251 44.767,75.251 44.767,73.246 38.531,73.246 	"/>
	<rect x="57.236" y="73.467" fill="#D1D3D4" width="2.005" height="2.004"/>
	<rect x="66.039" y="73.467" fill="#D1D3D4" width="2.004" height="2.004"/>
	<rect x="61.639" y="68.764" fill="#D1D3D4" width="2.004" height="2.004"/>
	<rect x="61.639" y="78.17" fill="#D1D3D4" width="2.004" height="2.004"/>
	<path fill="#D1D3D4" d="M51.003,52.057h3.653c12.789-0.93,22.808-12.469,22.808-26.271v-8.524c0-0.303-0.151-0.583-0.403-0.748
		c-0.146-0.095-0.315-0.146-0.49-0.146c-0.125,0-0.245,0.025-0.36,0.076l-15.963,7.014l-9.528-12.896
		C50.551,10.335,50.283,10.2,50,10.2s-0.552,0.135-0.719,0.363l-9.526,12.895l-15.964-7.014c-0.113-0.05-0.234-0.075-0.36-0.075
		c-0.174,0-0.343,0.05-0.489,0.145c-0.254,0.166-0.405,0.446-0.405,0.75v8.523c0,13.794,10.008,25.333,22.77,26.27h3.691v6.643
		h-27.02V89.8h56.045V58.697H51.003V52.057z M48.79,50.383l-1.544-0.055h-0.244c-12.504,0-22.677-11.01-22.677-24.544v-7.152
		l15.363,6.749c0.115,0.05,0.236,0.076,0.36,0.076c0.283,0,0.552-0.136,0.72-0.363L50,12.6l9.232,12.494
		c0.168,0.228,0.437,0.363,0.72,0.363c0.124,0,0.245-0.025,0.358-0.074l15.364-6.75v7.152c0,13.458-10.112,24.467-22.545,24.542
		h-0.358l-1.568,0.057L48.79,50.383z M76.02,60.701v27.095H23.981V60.701H76.02z"/>
</g>
</svg>
