<?xml version="1.0" encoding="utf-8"?>
<!-- Generator: Adobe Illustrator 16.0.0, SVG Export Plug-In . SVG Version: 6.00 Build 0)  -->
<!DOCTYPE svg PUBLIC "-//W3C//DTD SVG 1.1//EN" "http://www.w3.org/Graphics/SVG/1.1/DTD/svg11.dtd">
<svg version="1.1" id="Layer_1" xmlns="http://www.w3.org/2000/svg" xmlns:xlink="http://www.w3.org/1999/xlink" x="0px" y="0px"
	 width="100px" height="100px" viewBox="0 0 100 100" enable-background="new 0 0 100 100" xml:space="preserve">
<g>
	<g>
		<path fill="#D1D3D4" d="M68.961,52.463H29.903c-0.168,0-0.679,0-0.679,0.678c0,0.676,0.511,0.676,0.679,0.676h39.058
			c0.168,0,0.68,0,0.68-0.676C69.641,52.463,69.129,52.463,68.961,52.463z"/>
		<path fill="#D1D3D4" d="M29.903,47.521h39.058c0.168,0,0.68,0,0.68-0.677c0-0.677-0.512-0.677-0.68-0.677H29.903
			c-0.168,0-0.679,0-0.679,0.677C29.224,47.521,29.735,47.521,29.903,47.521z"/>
	</g>
	<g>
		<polygon fill="#D1D3D4" points="42.595,33.071 47.865,33.071 47.865,31.635 42.595,31.635 42.595,29.221 48.337,29.221 
			48.337,27.718 40.824,27.718 40.824,37.304 48.48,37.304 48.48,35.645 42.595,35.645 		"/>
		<polygon fill="#D1D3D4" points="56.285,29.799 57.953,37.304 60.117,37.304 62.764,27.718 61.036,27.718 59.079,35.295 
			57.282,27.718 55.289,27.718 53.538,35.162 51.534,27.718 49.806,27.718 52.398,37.304 54.604,37.304 		"/>
		<path fill="#D1D3D4" d="M66.582,27.661c-0.475,0.112-0.881,0.278-1.251,0.511c-0.356,0.22-0.651,0.511-0.881,0.868
			c-0.224,0.349-0.332,0.759-0.332,1.255c0,0.411,0.077,0.764,0.229,1.046c0.159,0.294,0.362,0.541,0.606,0.732
			c0.26,0.207,0.555,0.377,0.88,0.506c0.348,0.137,0.693,0.261,1.05,0.359c0.367,0.105,0.724,0.196,1.069,0.275
			c0.359,0.088,0.686,0.183,0.973,0.291c0.309,0.115,0.564,0.26,0.758,0.427c0.236,0.201,0.361,0.476,0.361,0.797
			c0,0.257-0.064,0.475-0.201,0.672c-0.129,0.176-0.291,0.316-0.48,0.416c-0.184,0.097-0.389,0.167-0.606,0.209
			c-0.214,0.043-0.433,0.064-0.655,0.064c-0.627,0-1.147-0.134-1.545-0.398c-0.367-0.242-0.592-0.642-0.672-1.189h-2.05
			c0.031,0.469,0.136,0.868,0.317,1.211c0.221,0.414,0.511,0.748,0.887,1.021c0.374,0.268,0.812,0.468,1.304,0.594
			c0.487,0.125,1.025,0.189,1.603,0.189c0.56,0,1.076-0.053,1.58-0.165c0.502-0.107,0.935-0.278,1.32-0.524
			c0.375-0.238,0.67-0.546,0.897-0.94c0.224-0.387,0.336-0.882,0.336-1.474c0-0.416-0.072-0.755-0.222-1.04
			c-0.148-0.286-0.349-0.53-0.592-0.729c-0.248-0.203-0.541-0.375-0.865-0.513c-0.344-0.141-0.695-0.264-1.057-0.366
			c-0.363-0.104-0.721-0.191-1.064-0.267c-0.367-0.079-0.696-0.17-0.988-0.267c-0.324-0.11-0.574-0.235-0.759-0.376
			c-0.248-0.181-0.38-0.437-0.38-0.74c0-0.24,0.062-0.444,0.181-0.607c0.103-0.138,0.233-0.254,0.419-0.36
			c0.16-0.083,0.325-0.139,0.502-0.171c0.173-0.032,0.342-0.048,0.502-0.048c0.219,0,0.441,0.024,0.665,0.072
			c0.229,0.049,0.442,0.13,0.631,0.242c0.199,0.117,0.364,0.28,0.492,0.489c0.076,0.127,0.127,0.271,0.151,0.428h2.039
			c-0.035-0.384-0.137-0.723-0.305-1.013c-0.209-0.367-0.492-0.678-0.837-0.922c-0.353-0.246-0.758-0.429-1.208-0.545
			c-0.458-0.121-0.934-0.183-1.416-0.183C67.505,27.499,67.038,27.553,66.582,27.661z"/>
		<path fill="#D1D3D4" d="M69.504,10H19.627v80h60.746V20.549L69.504,10z M70.827,13.829l5.248,5.259h-5.248V13.829z M78.561,88.188
			H21.44V11.813h47.839v8.843h9.281V88.188L78.561,88.188z"/>
		<polygon fill="#D1D3D4" points="32.431,27.717 30.195,27.717 30.195,37.298 31.806,37.298 31.806,30.104 36.149,37.298 
			38.384,37.298 38.384,27.717 36.764,27.717 36.764,34.751 		"/>
		<path fill="#D1D3D4" d="M47.104,62.992c0,0-18.219,0-18.229,0.01l-0.032,15.414h18.336L47.2,63.002
			C47.168,63.002,47.136,62.992,47.104,62.992z M45.653,76.891l-0.726-0.01H31.104l-0.726-0.043l0.021-12.289l0.705-0.01h14.56
			L45.653,76.891z"/>
		<path fill="#D1D3D4" d="M70.807,62.992c0,0-18.209,0-18.229,0.01l-0.021,15.414H70.88L70.9,63.002
			C70.88,63.002,70.848,62.992,70.807,62.992z M69.354,76.891l-0.715-0.01H54.807l-0.727-0.043l0.021-12.289l0.703-0.01h14.57
			L69.354,76.891z"/>
	</g>
</g>
</svg>
