<?xml version="1.0" encoding="utf-8"?>
<!-- Generator: Adobe Illustrator 16.0.0, SVG Export Plug-In . SVG Version: 6.00 Build 0)  -->
<!DOCTYPE svg PUBLIC "-//W3C//DTD SVG 1.1//EN" "http://www.w3.org/Graphics/SVG/1.1/DTD/svg11.dtd">
<svg version="1.1" id="Layer_1" xmlns="http://www.w3.org/2000/svg" xmlns:xlink="http://www.w3.org/1999/xlink" x="0px" y="0px"
	 width="100px" height="100px" viewBox="0 0 100 100" enable-background="new 0 0 100 100" xml:space="preserve">
<g>
	<path fill="#D1D3D4" d="M64.333,28.524c-3.287,0-5.961,2.674-5.961,5.96c0,3.287,2.674,5.961,5.961,5.961
		c3.286,0,5.959-2.674,5.959-5.961c0-1.589-0.62-3.085-1.747-4.212C67.417,29.145,65.922,28.524,64.333,28.524z M64.333,38.317
		c-2.113,0-3.833-1.719-3.833-3.833s1.72-3.833,3.833-3.833s3.832,1.719,3.832,3.833S66.446,38.317,64.333,38.317z"/>
	<path fill="#D1D3D4" d="M50.52,14c-19.852,0-36.001,16.149-36.001,36S30.668,86,50.52,86c11.976,0,23.133-5.93,29.845-15.863
		c0.165-0.242,0.222-0.547,0.156-0.834c-0.066-0.287-0.251-0.536-0.505-0.684L59.833,56.967L84.95,42.465
		c0.408-0.235,0.614-0.72,0.501-1.178C81.456,25.221,67.092,14,50.52,14z M57.174,56.045c-0.328,0.189-0.532,0.543-0.532,0.922
		c0,0.38,0.204,0.732,0.532,0.923l20.811,12.017l-1.102,1.363c-6.467,8.01-16.076,12.603-26.364,12.603
		c-18.677,0-33.872-15.194-33.872-33.872c0-18.677,15.195-33.872,33.872-33.872c14.909,0,27.899,9.542,32.326,23.744l0.357,1.146
		L57.174,56.045z"/>
</g>
</svg>
