<?xml version="1.0" encoding="utf-8"?>
<!-- Generator: Adobe Illustrator 16.0.0, SVG Export Plug-In . SVG Version: 6.00 Build 0)  -->
<!DOCTYPE svg PUBLIC "-//W3C//DTD SVG 1.1//EN" "http://www.w3.org/Graphics/SVG/1.1/DTD/svg11.dtd">
<svg version="1.1" id="Layer_1" xmlns="http://www.w3.org/2000/svg" xmlns:xlink="http://www.w3.org/1999/xlink" x="0px" y="0px"
	 width="100px" height="100px" viewBox="0 0 100 100" enable-background="new 0 0 100 100" xml:space="preserve">
<g>
	<path fill="#D1D3D4" d="M89.587,60.598c-0.152-0.133-0.419-0.223-0.665-0.223c-0.066,0-0.124,0.01-0.255,0.027l-0.113,0.004
		c-1.493,0-2.197-0.755-2.531-1.398l-0.104-0.266l-0.022-0.174c-0.476-5.499-3.066-10.91-7.294-15.234l-0.606-0.621l0.38-0.76
		c1.483-3.032,1.225-7.427,1.19-7.922c-0.013-0.278-0.154-0.537-0.389-0.708c-0.152-0.115-0.341-0.175-0.544-0.175
		c-0.085,0-0.168,0.015-0.23,0.025L64.78,36.657l-0.311-0.094c-1.219-0.398-3.484-0.711-7.083-1.183
		c-1.436-0.315-3.015-0.475-4.691-0.475c-9.048,0-17.418,4.827-17.767,5.03c-5.769,3.6-9.705,8.744-11.386,14.868l-0.073,0.32
		l-0.175,0.096c-0.542,0.292-1.104,0.492-1.671,0.598l-0.603,0.111l0.091-0.605c0.204-1.353,0.039-2.753-0.451-3.842
		c-0.417-0.916-1.022-1.4-1.748-1.4c-0.658,0-1.392,0.381-2.013,1.045c-0.761,0.813-1.177,1.855-1.113,2.786
		c0.082,1.312,1.212,2.393,2.243,2.967l1.075,0.601l-1.213,0.212c-0.243,0.042-0.5,0.063-0.763,0.063
		c-0.423,0-0.865-0.057-1.312-0.167c-3.432-0.852-4.832-4.07-4.163-9.562c0.024-0.204-0.008-0.301-0.031-0.327
		c-0.007-0.008-0.037-0.022-0.103-0.022c-0.452,0-1.183,0.56-1.241,1.065c-0.34,2.792-0.002,6.565,1.967,8.79
		c1.069,1.206,2.496,1.818,4.242,1.818c0.413,0,0.849-0.035,1.298-0.104c1.008-0.158,1.809-0.682,2.447-1.596l0.125-0.177
		l0.214-0.009c0.644-0.027,1.251-0.149,1.806-0.361l0.709-0.27l-0.122,0.75c-0.235,1.436-0.344,2.679-0.344,3.908
		c0,7.889,0.661,14.846,8.79,20.101l0.299,0.208l0.136,0.271c0.54,1.079,0.861,4.091,0.861,6.378c0,0.484,0.381,0.895,0.867,0.934
		l7.724,0.591c0.514,0,0.932-0.418,0.932-0.932c0-0.124-0.032-0.26-0.114-0.481l-0.027-0.141c-0.118-0.763-0.188-1.414-0.209-1.938
		l-0.044-1.56l1.515,0.333c2.996,0.646,6.053,0.699,8.927,0.699c0.571,0,0.944-0.009,1.279-0.027l1.019-0.077l0.243,1.001
		c0.195,0.801,0.408,1.802,0.558,2.611c0.088,0.449,0.478,0.773,0.93,0.773h0.008l5.209-0.039c0.519-0.007,0.935-0.408,0.947-0.912
		c0.029-1.52,0.153-3.236,0.315-4.372l0.137-0.958l1.649-0.124l2-0.163l0.335,0.84c0.293,0.763,0.603,1.706,0.829,2.523
		c0.113,0.406,0.471,0.69,0.884,0.69c0.028,0,0.064,0,0.12-0.008l8.047-0.757c0.276-0.027,0.532-0.175,0.684-0.398
		c0.161-0.229,0.214-0.512,0.146-0.776c-0.361-1.412-0.677-3.046-0.768-3.978l-0.046-0.603l0.452-0.407
		c1.118-0.998,1.61-2.061,2.09-3.095c0.381-0.797,0.707-1.486,1.256-2.192c2.625-2.889,7.062-3.113,8.36-3.113h0.126
		c0.22,0,0.44-0.09,0.614-0.251c0.195-0.196,0.299-0.438,0.299-0.7V61.309C90,61.081,89.846,60.816,89.587,60.598z M20.055,56.268
		l-0.646-0.311c-0.826-0.395-1.517-1.117-2.051-2.145c-0.284-0.551-0.305-1.157-0.056-1.585c0.177-0.306,0.471-0.48,0.806-0.48
		c0.208,0,0.534,0.071,0.901,0.418c0.713,0.669,0.886,1.814,1,2.573c0.044,0.292,0.046,0.551,0.046,0.797V56.268z M87.791,70.595
		c-2.216,0.269-6.281,1.107-8.622,3.692c-0.728,0.912-1.111,1.738-1.52,2.612c-0.509,1.087-0.948,2.024-2.103,2.848
		c0,0-0.141,0.112-0.168,0.14c-0.263,0.262-0.75,0.749-0.133,3.983l0.26,1.308l-6.153,0.595l-0.318-0.923
		c-0.935-2.833-1.579-3.014-1.922-3.111c-0.07-0.018-0.148-0.025-0.235-0.025c-0.105,0-0.171,0.01-0.276,0.041l-0.119,0.023
		c-0.356,0.049-1.057,0.1-1.791,0.147l-0.237,0.02c-1.549,0.112-2.106,0.163-2.352,0.239c-0.119,0.041-0.226,0.096-0.309,0.158
		c-0.263,0.201-0.879,0.672-1.119,4.836l-0.075,1.134l-3.514,0.024l-0.196-0.971c-0.693-3.285-1.189-3.465-1.94-3.469l-0.667,0.068
		c-0.636,0.066-1.02,0.107-2.004,0.107c-3.379,0-6.68-0.077-9.896-1.007c-0.036-0.011-0.069-0.018-0.16-0.035
		c-0.03-0.008-0.186-0.026-0.253-0.026c-0.521,0-0.995,0.229-1.333,0.646c-0.465,0.566-0.683,1.597-0.629,2.979l0.046,1.363
		l-5.448-0.428l-0.062-1.062c-0.233-4.518-1.267-6.025-2.102-6.5c-6.709-4.33-7.937-9.633-7.937-18.52
		c0-8.166,4.129-15.42,11.319-19.897c0.068-0.047,8.39-4.807,16.861-4.807c1.534,0,2.967,0.148,4.366,0.45
		c2.989,0.391,5.151,0.733,6.247,0.986l0.312,0.082l0.208,0.167c0.167,0.14,0.37,0.218,0.573,0.218c0.045,0,0.098-0.008,0.152-0.014
		l0.116-0.027l0.088-0.014l13.035-3.348l-0.153,1.7c-0.141,1.732-0.537,4.031-1.625,5.149c-0.187,0.195-0.278,0.437-0.266,0.708
		c0,0.244,0.11,0.483,0.303,0.657c4.751,4.306,7.59,9.83,7.996,15.557c0.006,0.098,0.025,0.188,0.06,0.271
		c0.542,1.438,1.646,2.439,3.104,2.817l0.915,0.229l-0.002,6.996l0.09,1.183L87.791,70.595z"/>
	<path fill="#D1D3D4" d="M37.211,27.919c4.875,0,8.841-3.966,8.841-8.841c0-4.875-3.966-8.841-8.841-8.841s-8.841,3.965-8.841,8.841
		C28.37,23.953,32.336,27.919,37.211,27.919z M37.211,11.581c4.134,0,7.496,3.363,7.496,7.497c0,4.134-3.362,7.498-7.496,7.498
		s-7.498-3.363-7.498-7.498C29.713,14.944,33.077,11.581,37.211,11.581z"/>
	<path fill="#D1D3D4" d="M58.467,44.357c-2.844-1.026-5.62-1.548-8.25-1.548c-8.04,0-12.354,4.843-12.533,5.048
		c-0.334,0.387-0.291,0.979,0.095,1.32c0.172,0.148,0.39,0.231,0.615,0.231c0.274,0,0.535-0.117,0.716-0.321
		c0.401-0.448,4.133-4.381,11.126-4.381c2.422,0,4.974,0.479,7.586,1.424c0.105,0.037,0.213,0.057,0.321,0.057
		c0.396,0,0.754-0.251,0.888-0.626c0.087-0.237,0.076-0.492-0.029-0.719C58.896,44.614,58.704,44.442,58.467,44.357z"/>
	<path fill="#D1D3D4" d="M75.93,53.279c-0.333,0-0.939,0.757-0.939,1.994c0,1.236,0.606,1.993,0.939,1.993
		c0.332,0,0.942-0.757,0.942-1.993C76.872,54.036,76.262,53.279,75.93,53.279z"/>
</g>
</svg>
