<?xml version="1.0" encoding="utf-8"?>
<!-- Generator: Adobe Illustrator 16.0.0, SVG Export Plug-In . SVG Version: 6.00 Build 0)  -->
<!DOCTYPE svg PUBLIC "-//W3C//DTD SVG 1.1//EN" "http://www.w3.org/Graphics/SVG/1.1/DTD/svg11.dtd">
<svg version="1.1" id="Layer_1" xmlns="http://www.w3.org/2000/svg" xmlns:xlink="http://www.w3.org/1999/xlink" x="0px" y="0px"
	 width="100px" height="100px" viewBox="0 0 100 100" enable-background="new 0 0 100 100" xml:space="preserve">
<g>
	<g>
		<path fill="#D1D3D4" d="M92.263,42.723c-0.163-0.163-0.365-0.246-0.603-0.246h-8.111c-0.069,0-0.132,0.005-0.195,0.017
			l-0.087,0.016H70.155c-0.378,0-0.712,0.257-0.803,0.549l-0.012,0.393l-0.152,0.139c-0.853,1.923-2.864,3.841-5.479,3.841
			c-2.45,0-4.774-1.755-5.649-4.267c-0.031-0.088-0.068-0.16-0.113-0.216L57.829,42.8c-0.154-0.185-0.384-0.29-0.631-0.29
			l-39.696-0.017l-0.115,0.028H8.352c-0.47,0-0.852,0.377-0.852,0.843c-0.042,11.409,4.374,22.147,12.435,30.238
			c8.019,8.051,18.673,12.484,30,12.484h0.033c23.408,0,42.488-19.187,42.532-42.77C92.5,43.089,92.414,42.873,92.263,42.723z
			 M56.697,44.208l0.274,0.534c1.341,2.626,3.99,4.322,6.749,4.322c2.727,0,5.372-1.699,6.742-4.329l0.274-0.527h12.52l-0.058,1.035
			c-0.449,7.956-3.811,15.453-9.466,21.109c-6.139,6.14-14.305,9.521-22.993,9.521c-8.698-0.012-16.864-3.393-22.992-9.521
			c-5.644-5.644-9.004-13.14-9.465-21.107l-0.061-1.037H56.697z M90.769,45.191C89.73,67.176,71.8,84.398,49.945,84.398
			c-10.872,0-21.103-4.256-28.808-11.982C13.873,65.119,9.645,55.463,9.234,45.228l-0.042-1.019h7.353l0.049,0.931
			c0.42,8.438,3.957,16.396,9.959,22.407c6.458,6.457,15.053,10.014,24.198,10.014c9.139,0,17.721-3.557,24.167-10.014
			c6.016-6.016,9.561-13.988,9.981-22.451l0.047-0.931h5.87L90.769,45.191z"/>
	</g>
	<path fill="#D1D3D4" d="M50.196,69.808c1.008,0,1.797-0.794,1.797-1.807c0-0.62-0.918-2.521-1.833-4.099
		c-0.543,0.943-1.761,3.115-1.761,4.109C48.399,69.035,49.172,69.808,50.196,69.808z"/>
	<path fill="#D1D3D4" d="M41.13,68.246c0.205,0.074,0.428,0.113,0.639,0.113c0.743,0,1.396-0.469,1.661-1.193
		c0.209-0.572,0.012-2.646-0.312-4.48c-0.9,0.756-2.74,2.342-3.065,3.252C39.707,66.881,40.184,67.896,41.13,68.246z"/>
	<path fill="#D1D3D4" d="M34.321,64.103c0.517,0,1.007-0.235,1.35-0.647c0.435-0.521,0.966-2.752,1.239-4.325
		c-1.164,0.43-3.378,1.276-3.982,2.005c-0.646,0.773-0.553,1.887,0.211,2.531C33.477,63.947,33.896,64.103,34.321,64.103z"/>
	<path fill="#D1D3D4" d="M29.659,57.298c0.544-0.315,1.734-2.058,2.643-3.628h-0.083c-2.856,0-3.948,0.279-4.352,0.51
		c-0.871,0.512-1.16,1.594-0.658,2.463c0.331,0.573,0.906,0.915,1.536,0.915C29.055,57.558,29.376,57.468,29.659,57.298z"/>
	<path fill="#D1D3D4" d="M57.938,68.359c0.214,0,0.428-0.04,0.639-0.124c0.462-0.167,0.824-0.495,1.026-0.924
		c0.2-0.427,0.219-0.916,0.049-1.378c-0.316-0.887-2.077-2.418-3.06-3.245c-0.279,1.552-0.547,3.847-0.317,4.478
		C56.541,67.891,57.195,68.359,57.938,68.359z"/>
	<path fill="#D1D3D4" d="M65.396,64.103c0.418,0,0.836-0.153,1.169-0.423c0.374-0.317,0.602-0.748,0.644-1.223
		c0.046-0.463-0.104-0.936-0.415-1.319c-0.616-0.729-2.855-1.581-3.997-2.009c0.274,1.592,0.801,3.807,1.243,4.328
		C64.377,63.867,64.873,64.103,65.396,64.103z"/>
	<path fill="#D1D3D4" d="M70.056,57.303c0.274,0.165,0.597,0.255,0.906,0.255c0.638,0,1.211-0.34,1.535-0.915
		c0.503-0.87,0.216-1.947-0.656-2.451c-0.407-0.238-1.491-0.521-4.354-0.521H67.41C69.126,56.557,69.825,57.169,70.056,57.303z"/>
	<g>
		<path fill="#D1D3D4" d="M51.24,25.023c-0.661-0.614-1.553-0.952-2.508-0.952c-1.066,0-2.068,0.421-2.751,1.156
			c-0.691,0.744-1.057,1.684-1.026,2.648c0.028,0.985,0.462,1.915,1.215,2.616c0.852,0.787,4.481,2.015,8.808,2.978
			C54.33,31.387,52.726,26.398,51.24,25.023z M46.932,28.083c-0.019-0.562,0.191-1.111,0.587-1.545
			c0.387-0.429,0.957-0.674,1.563-0.674c0.545,0,1.053,0.196,1.43,0.555c0.845,0.801,1.758,3.712,2.126,4.926
			c-2.462-0.562-4.529-1.278-5.014-1.736C47.194,29.201,46.948,28.658,46.932,28.083z"/>
		<path fill="#D1D3D4" d="M70.074,13.914c-1.018,0.007-1.956,0.385-2.642,1.063c-0.708,0.7-1.093,1.649-1.086,2.673
			c0.005,0.964,1.196,3.946,3.833,8.478c1.234-2.162,3.638-6.471,3.628-8.505C73.799,15.542,72.156,13.914,70.074,13.914z
			 M70.135,23.111c-1.511-2.765-2.193-4.583-2.197-5.172c-0.005-0.625,0.218-1.204,0.622-1.631c0.395-0.414,0.933-0.645,1.515-0.649
			c1.195,0,2.138,0.994,2.144,2.263C72.224,19.164,70.845,21.792,70.135,23.111z"/>
		<path fill="#D1D3D4" d="M85.154,24.474c-0.688-0.657-1.607-1.02-2.592-1.02c-1.036,0-1.986,0.397-2.68,1.12
			c-0.801,0.833-2.08,4.394-3.158,8.753c4.691-1.368,7.561-2.576,8.535-3.596c0.711-0.732,1.084-1.678,1.055-2.665
			C86.286,26.091,85.871,25.168,85.154,24.474z M84.032,28.975c-0.587,0.615-2.312,1.342-5.136,2.167
			c0.65-2.626,1.419-4.771,1.899-5.274c0.418-0.435,0.989-0.674,1.613-0.674c0.593,0,1.145,0.218,1.56,0.614
			c0.43,0.418,0.68,0.974,0.696,1.562C84.684,27.964,84.459,28.534,84.032,28.975z"/>
	</g>
</g>
</svg>
