<?xml version="1.0" encoding="utf-8"?>
<!-- Generator: Adobe Illustrator 16.0.0, SVG Export Plug-In . SVG Version: 6.00 Build 0)  -->
<!DOCTYPE svg PUBLIC "-//W3C//DTD SVG 1.1//EN" "http://www.w3.org/Graphics/SVG/1.1/DTD/svg11.dtd">
<svg version="1.1" id="Layer_1" xmlns="http://www.w3.org/2000/svg" xmlns:xlink="http://www.w3.org/1999/xlink" x="0px" y="0px"
	 width="100px" height="100px" viewBox="0 0 100 100" enable-background="new 0 0 100 100" xml:space="preserve">
<g>
	<path fill="#D1D3D4" d="M88.777,18.75c-0.149,0-0.297,0.026-0.44,0.083L10.879,41.319c-0.316,0.094-0.578,0.307-0.734,0.599
		c-0.152,0.284-0.186,0.607-0.094,0.914c0.044,0.156,0.12,0.303,0.227,0.436l0.039,0.058L27.511,60.52v19.549l0.009,0.092
		c0.026,0.277,0.146,0.531,0.351,0.734c0.222,0.229,0.527,0.355,0.863,0.355c0.317,0,0.625-0.127,0.863-0.357l9.144-9.152
		l9.146,9.145c0.224,0.232,0.523,0.355,0.863,0.355c0.325,0,0.629-0.124,0.861-0.344l0.175-0.297l0.022,0.045l39.975-57.472
		c0.121-0.173,0.191-0.363,0.208-0.549L90,19.972C90,19.298,89.451,18.75,88.777,18.75z M28.89,58.441L13.542,43.093l67.841-19.709
		l0.147,0.32L28.89,58.441z M29.954,77.087V62.953l7.057,7.066L29.954,77.087z M48.581,78.133L30.644,60.194l55.424-36.558
		l0.245,0.251L48.581,78.133z"/>
</g>
</svg>
