<?xml version="1.0" encoding="utf-8"?>
<!-- Generator: Adobe Illustrator 16.0.0, SVG Export Plug-In . SVG Version: 6.00 Build 0)  -->
<!DOCTYPE svg PUBLIC "-//W3C//DTD SVG 1.1//EN" "http://www.w3.org/Graphics/SVG/1.1/DTD/svg11.dtd">
<svg version="1.1" id="Layer_1" xmlns="http://www.w3.org/2000/svg" xmlns:xlink="http://www.w3.org/1999/xlink" x="0px" y="0px"
	 width="100px" height="100px" viewBox="0 0 100 100" enable-background="new 0 0 100 100" xml:space="preserve">
<g>
	<path fill="#D1D3D4" d="M24.516,29.07H22.19v2.325h2.325V29.07z M24.315,31.195h-1.925v-1.925h1.925V31.195z"/>
	<rect x="22.391" y="29.271" fill="#D1D3D4" width="1.925" height="1.925"/>
	<path fill="#D1D3D4" d="M31.783,29.07h-2.326v2.325h2.326V29.07z M31.583,31.195h-1.926v-1.925h1.926V31.195z"/>
	<rect x="29.657" y="29.271" fill="#D1D3D4" width="1.926" height="1.925"/>
	<path fill="#D1D3D4" d="M39.051,29.07h-2.326v2.325h2.326V29.07z M38.851,31.195h-1.926v-1.925h1.926V31.195z"/>
	<rect x="36.925" y="29.271" fill="#D1D3D4" width="1.926" height="1.925"/>
	<rect x="22.391" y="48.65" fill="#D1D3D4" width="45.529" height="1.924"/>
	<rect x="22.391" y="58.34" fill="#D1D3D4" width="55.22" height="1.925"/>
	<path fill="#D1D3D4" d="M12.7,80.032h74.6V19.968H12.7V80.032z M14.626,21.893h70.748v17.454H14.626V21.893z M14.626,41.273h70.748
		v36.834H14.626V41.273z"/>
	<rect x="22.391" y="68.029" fill="#D1D3D4" width="26.149" height="1.926"/>
</g>
</svg>
