<?xml version="1.0" encoding="utf-8"?>
<!-- Generator: Adobe Illustrator 16.0.0, SVG Export Plug-In . SVG Version: 6.00 Build 0)  -->
<!DOCTYPE svg PUBLIC "-//W3C//DTD SVG 1.1//EN" "http://www.w3.org/Graphics/SVG/1.1/DTD/svg11.dtd">
<svg version="1.1" id="Layer_1" xmlns="http://www.w3.org/2000/svg" xmlns:xlink="http://www.w3.org/1999/xlink" x="0px" y="0px"
	 width="100px" height="100px" viewBox="0 0 100 100" enable-background="new 0 0 100 100" xml:space="preserve">
<g>
	<g>
		<g>
			<path fill="#D1D3D4" d="M92.059,74.162l-13.962-8.226L68.018,38.479l2.674-0.411l7.688,8.904
				c0.171,0.197,0.419,0.311,0.681,0.311c0.05,0,0.099-0.004,0.147-0.013c0.306-0.052,0.569-0.263,0.684-0.554l3.256-8.221
				c0.102-0.257,0.078-0.553-0.064-0.791l-6.209-10.353c-0.16-0.268-0.455-0.434-0.768-0.434c-0.066,0-0.134,0.007-0.199,0.021
				l-17.855,4.069l1.38-2.294c1.092-1.813,1.581-3.895,1.413-6.021c-0.203-2.565-1.357-4.938-3.25-6.679
				c-1.882-1.733-4.323-2.687-6.873-2.687c-0.269,0-0.54,0.012-0.809,0.031c-5.588,0.441-9.776,5.345-9.335,10.934
				c0.202,2.566,1.356,4.938,3.25,6.68c0.393,0.362,0.828,0.7,1.292,1.006l2.223,1.47L41.28,34.83l-7.43-5.456
				c-0.155-0.114-0.338-0.175-0.53-0.175c-0.054,0-0.111,0.005-0.165,0.016c-0.243,0.045-0.458,0.19-0.59,0.4l-3.667,5.769
				c-0.18,0.283-0.187,0.638-0.02,0.926l5.959,10.335c0.16,0.276,0.457,0.447,0.775,0.447c0.023,0,0.047-0.001,0.071-0.002
				l15.188-1.198l3.696,11.706l-9.901,3.579c-0.286,0.104-0.499,0.342-0.568,0.638L39.59,81.091
				c-0.084,0.357,0.057,0.726,0.356,0.938l6.366,4.482c0.152,0.104,0.331,0.162,0.517,0.162c0.096,0,0.189-0.015,0.281-0.045
				c0.268-0.09,0.481-0.302,0.569-0.571l5.192-15.768l12.813-4.63l1.674,5.526c0.069,0.229,0.232,0.425,0.446,0.534l21.812,11.293
				c0.126,0.063,0.268,0.099,0.41,0.099c0.134,0,0.262-0.028,0.382-0.085c0.251-0.118,0.436-0.351,0.493-0.62l1.577-7.284
				C92.561,74.745,92.393,74.358,92.059,74.162z M42.361,24.151c-0.176-2.226,0.529-4.391,1.982-6.094
				c1.454-1.703,3.482-2.736,5.708-2.913c0.222-0.018,0.448-0.025,0.67-0.025c4.334,0,7.996,3.39,8.337,7.716
				c0.178,2.23-0.527,4.395-1.979,6.096c-1.453,1.702-3.48,2.735-5.711,2.911c-0.223,0.018-0.449,0.026-0.668,0.026
				C46.365,31.867,42.702,28.478,42.361,24.151z M89.4,80.884l-20.437-10.58l-1.84-6.067c-0.068-0.234-0.236-0.432-0.454-0.542
				c-0.124-0.061-0.262-0.094-0.402-0.094c-0.104,0-0.206,0.018-0.303,0.053l-14.114,5.099c-0.261,0.095-0.458,0.299-0.546,0.562
				l-4.949,15.036l-4.883-3.44l4.257-18.212l10.251-3.706c0.452-0.164,0.694-0.651,0.55-1.112l-4.169-13.206
				c-0.117-0.374-0.461-0.625-0.855-0.625c-0.021,0-0.046,0.001-0.068,0.003l-15.334,1.208l-5.406-9.375l2.861-4.503l6.989,5.132
				c0.155,0.114,0.338,0.175,0.531,0.175c0.067,0,0.134-0.008,0.198-0.022l34.395-7.838l5.646,9.419l-2.549,6.435l-7.047-8.161
				c-0.17-0.198-0.417-0.31-0.679-0.31c-0.045,0-0.091,0.003-0.135,0.011l-4.245,0.65c-0.268,0.042-0.498,0.198-0.636,0.43
				c-0.138,0.232-0.163,0.511-0.07,0.765l10.566,28.786c0.07,0.193,0.208,0.357,0.386,0.463l13.681,8.059L89.4,80.884z"/>
			<path fill="#D1D3D4" d="M17.705,59.793c-2.725,0-5.288,1.061-7.215,2.989C8.562,64.709,7.5,67.271,7.5,69.998
				c0,2.726,1.062,5.29,2.989,7.218s4.49,2.99,7.215,2.99c2.727,0,5.289-1.062,7.216-2.99s2.989-4.492,2.989-7.218
				s-1.062-5.289-2.989-7.217C22.992,60.854,20.43,59.793,17.705,59.793z M23.703,75.994c-1.602,1.604-3.732,2.485-5.999,2.485
				c-2.265,0-4.396-0.882-5.997-2.483c-1.603-1.6-2.485-3.73-2.485-5.999c0-2.263,0.883-4.394,2.485-5.996
				c1.602-1.604,3.732-2.485,5.997-2.485c2.266,0,4.396,0.883,6,2.485c1.601,1.603,2.482,3.731,2.482,5.996
				C26.186,72.265,25.304,74.395,23.703,75.994z"/>
		</g>
	</g>
</g>
</svg>
