<?xml version="1.0" encoding="utf-8"?>
<!-- Generator: Adobe Illustrator 16.0.0, SVG Export Plug-In . SVG Version: 6.00 Build 0)  -->
<!DOCTYPE svg PUBLIC "-//W3C//DTD SVG 1.1//EN" "http://www.w3.org/Graphics/SVG/1.1/DTD/svg11.dtd">
<svg version="1.1" id="Layer_1" xmlns="http://www.w3.org/2000/svg" xmlns:xlink="http://www.w3.org/1999/xlink" x="0px" y="0px"
	 width="100px" height="100px" viewBox="0 0 100 100" enable-background="new 0 0 100 100" xml:space="preserve">
<g>
	<g>
		<path fill="#D1D3D4" d="M75.84,7.38H24.19c-1.351,0-2.46,1.101-2.46,2.45v80.34c0,1.35,1.109,2.45,2.46,2.45H75.84
			c1.351,0,2.45-1.101,2.45-2.45V9.83C78.29,8.48,77.19,7.38,75.84,7.38z M76.25,88.73c0,1.02-0.83,1.85-1.85,1.85H25.62
			c-1.01,0-1.84-0.83-1.84-1.85V11.26c0-1.01,0.83-1.84,1.84-1.84H74.4c1.02,0,1.85,0.83,1.85,1.84V88.73z"/>
		<path fill="#D1D3D4" d="M57.85,76.12c0,1.04-0.84,1.89-1.88,1.89s-1.89-0.85-1.89-1.89s0.85-1.88,1.89-1.88
			S57.85,75.08,57.85,76.12z"/>
		<path fill="#D1D3D4" d="M46.76,72.14c0,0.49-0.41,0.9-0.899,0.9H40.4v5.46c0,0.49-0.4,0.89-0.9,0.89c-0.49,0-0.89-0.399-0.89-0.89
			v-5.46H33.14c-0.489,0-0.89-0.41-0.89-0.9c0-0.489,0.4-0.89,0.89-0.89h5.471v-5.47c0-0.49,0.399-0.891,0.89-0.891
			c0.5,0,0.9,0.4,0.9,0.891v5.47h5.46C46.35,71.25,46.76,71.65,46.76,72.14z"/>
	</g>
	<g>
		<path fill="#D1D3D4" d="M66.31,77.83c0.011,0.51-0.18,0.99-0.529,1.35c-0.36,0.38-0.84,0.58-1.36,0.58
			c-0.479,0-0.95-0.189-1.3-0.52c-0.36-0.351-0.561-0.82-0.57-1.32s0.17-0.979,0.521-1.34C63.43,76.21,63.92,76,64.44,76
			c0.479,0,0.939,0.18,1.29,0.52C66.09,76.86,66.3,77.33,66.31,77.83z"/>
	</g>
	<g>
		<path fill="#D1D3D4" d="M66.31,69.28c0,1.029-0.84,1.87-1.869,1.87c-1.051,0-1.9-0.841-1.9-1.87c0-1.04,0.85-1.88,1.9-1.88
			C65.47,67.4,66.31,68.24,66.31,69.28z"/>
	</g>
	<g>
		<path fill="#D1D3D4" d="M67.11,16.21h-34.2c-1.141,0-2.07,0.93-2.07,2.07v34.2c0,1.14,0.93,2.069,2.07,2.069h34.2
			c1.14,0,2.08-0.93,2.08-2.069v-34.2C69.19,17.14,68.25,16.21,67.11,16.21z M67.48,51.26c0,0.88-0.711,1.59-1.591,1.59H34.13
			c-0.87,0-1.59-0.71-1.59-1.59V19.5c0-0.88,0.72-1.59,1.59-1.59h31.76c0.88,0,1.591,0.71,1.591,1.59V51.26z"/>
	</g>
	<g>
		<path fill="#D1D3D4" d="M59,68.37c0,1.04-0.84,1.89-1.88,1.89s-1.89-0.85-1.89-1.89s0.85-1.88,1.89-1.88S59,67.33,59,68.37z"/>
	</g>
</g>
</svg>
