<?xml version="1.0" encoding="utf-8"?>
<!-- Generator: Adobe Illustrator 16.0.0, SVG Export Plug-In . SVG Version: 6.00 Build 0)  -->
<!DOCTYPE svg PUBLIC "-//W3C//DTD SVG 1.1//EN" "http://www.w3.org/Graphics/SVG/1.1/DTD/svg11.dtd">
<svg version="1.1" id="Layer_1" xmlns="http://www.w3.org/2000/svg" xmlns:xlink="http://www.w3.org/1999/xlink" x="0px" y="0px"
	 width="100px" height="100px" viewBox="0 0 100 100" enable-background="new 0 0 100 100" xml:space="preserve">
<g>
	<path fill="#D1D3D4" d="M62.635,62.734c-3.129,0-5.676,2.68-5.676,5.974s2.547,5.975,5.676,5.975c3.131,0,5.678-2.681,5.678-5.975
		S65.766,62.734,62.635,62.734z M62.635,72.877c-2.135,0-3.871-1.87-3.871-4.169s1.736-4.169,3.871-4.169s3.871,1.87,3.871,4.169
		S64.77,72.877,62.635,72.877z"/>
	<path fill="#D1D3D4" d="M44.235,35.116c-5.274,0-9.405,2.755-9.405,6.272c0,3.517,4.131,6.271,9.405,6.271s9.406-2.755,9.406-6.271
		C53.641,37.871,49.509,35.116,44.235,35.116z M44.235,45.854c-4.119,0-7.599-2.045-7.599-4.466c0-2.422,3.48-4.467,7.599-4.467
		c4.12,0,7.599,2.045,7.599,4.467C51.834,43.81,48.354,45.854,44.235,45.854z"/>
	<path fill="#D1D3D4" d="M74.545,49.29L61.23,41.33c-0.141-0.084-0.3-0.129-0.461-0.129c-0.322,0-0.613,0.165-0.777,0.439
		l-4.683,7.83c-0.255,0.428-0.114,0.983,0.312,1.239l13.314,7.961c0.141,0.084,0.301,0.129,0.463,0.129
		c0.074,0,0.148-0.01,0.221-0.028c0.234-0.06,0.432-0.206,0.555-0.412l4.684-7.83C75.111,50.102,74.973,49.546,74.545,49.29z
		 M69.088,56.659l-11.766-7.036l3.756-6.282l11.767,7.036L69.088,56.659z"/>
	<path fill="#D1D3D4" d="M86.598,28.304H64.186v-7.103c0-0.237-0.096-0.47-0.264-0.638l-2.986-2.984
		c-0.166-0.168-0.398-0.264-0.637-0.264H39.701c-0.237,0-0.47,0.096-0.638,0.264l-2.983,2.984c-0.17,0.17-0.264,0.396-0.264,0.638
		v7.103H13.403c-0.498,0-0.903,0.405-0.903,0.902v52.576c0,0.498,0.405,0.902,0.903,0.902h73.195c0.497,0,0.902-0.404,0.902-0.902
		V29.206C87.5,28.709,87.095,28.304,86.598,28.304z M37.62,21.575l2.455-2.455h19.852l2.453,2.455v6.729H37.62V21.575z
		 M85.695,80.879h-71.39v-50.77h71.39V80.879z"/>
	<path fill="#D1D3D4" d="M37.655,54.158c-0.095-0.222-0.269-0.394-0.492-0.482c-0.109-0.045-0.222-0.066-0.337-0.066
		c-0.121,0-0.24,0.024-0.354,0.072l-8.393,3.575c-0.259,0.11-0.449,0.331-0.521,0.604c-0.051,0.193-0.036,0.395,0.043,0.58
		l5.237,12.291c0.143,0.333,0.468,0.549,0.832,0.549c0.121,0,0.24-0.024,0.352-0.072l8.395-3.577
		c0.221-0.094,0.393-0.269,0.481-0.489c0.015-0.037,0.027-0.074,0.038-0.11c0.05-0.193,0.035-0.4-0.043-0.583L37.655,54.158z
		 M34.145,69.195l-4.529-10.631l6.734-2.868l4.528,10.63L34.145,69.195z"/>
</g>
</svg>
