<?xml version="1.0" encoding="utf-8"?>
<!-- Generator: Adobe Illustrator 16.0.0, SVG Export Plug-In . SVG Version: 6.00 Build 0)  -->
<!DOCTYPE svg PUBLIC "-//W3C//DTD SVG 1.1//EN" "http://www.w3.org/Graphics/SVG/1.1/DTD/svg11.dtd">
<svg version="1.1" id="Layer_1" xmlns="http://www.w3.org/2000/svg" xmlns:xlink="http://www.w3.org/1999/xlink" x="0px" y="0px"
	 width="100px" height="100px" viewBox="0 0 100 100" enable-background="new 0 0 100 100" xml:space="preserve">
<g>
	<g>
		<g>
			<path fill="#D1D3D4" d="M28.189,13.299c-7.021,0-12.729,5.716-12.729,12.738c0,7.012,5.707,12.728,12.729,12.728
				s12.729-5.716,12.729-12.728C40.919,19.015,35.211,13.299,28.189,13.299z M28.189,37.202c-6.165,0-11.175-5.011-11.175-11.165
				c0-6.166,5.01-11.176,11.175-11.176s11.175,5.01,11.175,11.176C39.364,32.191,34.354,37.202,28.189,37.202z"/>
			<path fill="#D1D3D4" d="M28.189,38.915c-7.101,0-12.878-5.777-12.878-12.878c0-7.106,5.777-12.889,12.878-12.889
				c7.102,0,12.88,5.782,12.88,12.889C41.069,33.138,35.291,38.915,28.189,38.915z M28.189,13.449
				c-6.936,0-12.579,5.646-12.579,12.588c0,6.936,5.643,12.577,12.579,12.577c6.937,0,12.579-5.642,12.579-12.577
				C40.769,19.096,35.126,13.449,28.189,13.449z M28.189,37.353c-6.245,0-11.325-5.076-11.325-11.315
				c0-6.245,5.08-11.326,11.325-11.326c6.244,0,11.325,5.081,11.325,11.326C39.515,32.276,34.434,37.353,28.189,37.353z
				 M28.189,15.012c-6.079,0-11.025,4.945-11.025,11.025c0,6.073,4.946,11.015,11.025,11.015s11.024-4.941,11.024-11.015
				C39.214,19.957,34.269,15.012,28.189,15.012z"/>
		</g>
	</g>
	<g>
		<g>
			<path fill="#D1D3D4" d="M60.32,13.15c-7.11,0-12.891,5.779-12.891,12.89c0,7.1,5.78,12.88,12.891,12.88
				c7.1,0,12.88-5.78,12.88-12.88C73.2,18.93,67.42,13.15,60.32,13.15z M60.32,37.05c-6.08,0-11.021-4.939-11.021-11.01
				c0-6.08,4.94-11.03,11.021-11.03c6.069,0,11.01,4.95,11.01,11.03C71.33,32.11,66.39,37.05,60.32,37.05z"/>
		</g>
	</g>
	<g>
		<g>
			<path fill="#D1D3D4" d="M85.25,85.92c-0.002,0,0.07,0,0.07,0c-0.012,0-0.022-0.002-0.033-0.002
				C85.274,85.918,85.263,85.92,85.25,85.92z"/>
		</g>
	</g>
	<g>
		<g>
			<path fill="#D1D3D4" d="M86.87,46.7c-0.51-0.54-1.09-0.78-1.86-0.78c-0.75,0-1.56,0.23-2.49,0.68
				C78.93,48.52,73.82,51.2,70.36,53l-2.16,1.13l0.229-3.25V50.65c0-3.78-3.02-6.971-6.6-6.971h-42.6c-3.46,0-6.73,3.57-6.73,7.351
				v30c0,3.37,2.83,5.819,6.73,5.819h42.6c3.7,0,6.479-2.51,6.6-5.979l-0.27-4.33l2.12,1.06c2.79,1.41,7.35,3.771,12.2,6.32
				l0.149,0.07c1.2,0.359,1.98,0.56,2.64,0.56c1.23,0,1.82-0.64,2.021-0.92c0.35-0.47,0.51-1.22,0.51-2.38v-31.2
				C87.81,49.27,87.83,47.66,86.87,46.7z M66.23,75.07l0.329,5.649c-0.029,2.471-2.02,4.271-4.729,4.271h-42.6
				c-2.96,0-4.86-1.561-4.86-3.96v-30c0-2.49,2.16-5.48,4.86-5.48h42.6c2.52,0,4.689,2.351,4.729,5.13l-0.329,4.95
				c-0.021,0.271,0.069,0.53,0.25,0.71c0.18,0.19,0.42,0.28,0.689,0.28c0.46-0.021,2.061-0.78,16.19-8.34
				c0.35-0.16,0.659-0.28,0.93-0.37l1.55-0.45l0.19,1.6c0.04,0.341,0.05,0.721,0.05,1.131v32.76l-1.7-0.42
				c-0.27-0.07-0.58-0.15-0.96-0.271l-0.25-0.1c-10.7-5.641-15.34-7.96-16.02-7.99c-0.16,0-0.46,0.04-0.67,0.28
				C66.29,74.63,66.21,74.82,66.23,75.07z"/>
		</g>
	</g>
</g>
</svg>
