<?xml version="1.0" encoding="utf-8"?>
<!-- Generator: Adobe Illustrator 16.0.0, SVG Export Plug-In . SVG Version: 6.00 Build 0)  -->
<!DOCTYPE svg PUBLIC "-//W3C//DTD SVG 1.1//EN" "http://www.w3.org/Graphics/SVG/1.1/DTD/svg11.dtd">
<svg version="1.1" id="Layer_1" xmlns="http://www.w3.org/2000/svg" xmlns:xlink="http://www.w3.org/1999/xlink" x="0px" y="0px"
	 width="100px" height="100px" viewBox="0 0 100 100" enable-background="new 0 0 100 100" xml:space="preserve">
<path fill="#E1E1E1" d="M81.93,0c-9.979,0-18.07,8.09-18.07,18.07c0,0.422,0.033,0.834,0.063,1.248L30.541,34.986
	c-3.243-3.1-7.63-5.014-12.47-5.014C8.091,29.973,0,38.064,0,48.043c0,9.98,8.091,18.071,18.07,18.071
	c3.148,0,6.108-0.81,8.686-2.224l14.448,12.174c-0.632,1.844-0.991,3.811-0.991,5.865c0,9.979,8.091,18.069,18.071,18.069
	c9.979,0,18.069-8.09,18.069-18.069c0-9.98-8.09-18.07-18.069-18.07c-3.147,0-6.108,0.809-8.686,2.223L35.149,53.907
	c0.633-1.841,0.992-3.809,0.992-5.864c0-0.42-0.034-0.832-0.064-1.248l33.382-15.667c3.244,3.1,7.63,5.014,12.471,5.014
	c9.979,0,18.07-8.091,18.07-18.071S91.909,0,81.93,0z"/>
</svg>
