<?xml version="1.0" encoding="utf-8"?>
<!-- Generator: Adobe Illustrator 16.0.0, SVG Export Plug-In . SVG Version: 6.00 Build 0)  -->
<!DOCTYPE svg PUBLIC "-//W3C//DTD SVG 1.1//EN" "http://www.w3.org/Graphics/SVG/1.1/DTD/svg11.dtd">
<svg version="1.1" id="Layer_1" xmlns="http://www.w3.org/2000/svg" xmlns:xlink="http://www.w3.org/1999/xlink" x="0px" y="0px"
	 width="100px" height="100px" viewBox="0 0 100 100" enable-background="new 0 0 100 100" xml:space="preserve">
<g id="fullscreen_x5F_exit">
	<g>
		<polygon fill="#E1E1E1" points="72.541,83.016 89.525,100 100,89.525 83.016,72.541 100,55.557 55.555,55.557 55.555,100 		"/>
		<polygon fill="#E1E1E1" points="0,44.444 44.445,44.444 44.445,0 27.459,16.985 10.648,0.159 0.174,10.634 16.984,27.459 		"/>
		<polygon fill="#E1E1E1" points="0,89.525 10.475,100 27.459,83.016 44.445,100 44.445,55.557 0,55.557 16.984,72.541 		"/>
		<polygon fill="#E1E1E1" points="55.555,44.444 100,44.444 83.016,27.459 99.855,10.634 89.381,0.159 72.541,16.985 55.555,0 		"/>
	</g>
</g>
</svg>
