<?xml version="1.0" encoding="utf-8"?>
<!-- Generator: Adobe Illustrator 16.0.0, SVG Export Plug-In . SVG Version: 6.00 Build 0)  -->
<!DOCTYPE svg PUBLIC "-//W3C//DTD SVG 1.1//EN" "http://www.w3.org/Graphics/SVG/1.1/DTD/svg11.dtd">
<svg version="1.1" id="Layer_1" xmlns="http://www.w3.org/2000/svg" xmlns:xlink="http://www.w3.org/1999/xlink" x="0px" y="0px"
	 width="100px" height="100px" viewBox="0 0 100 100" enable-background="new 0 0 100 100" xml:space="preserve">
<g id="fullscreen_x5F_exit_1_">
	<g>
		<polygon fill="#FFFFFF" points="83.015,72.541 66.03,55.556 55.556,66.03 72.54,83.015 55.556,100 100,100 100,55.556 		"/>
		<polygon fill="#FFFFFF" points="44.445,0 0,0 0,44.444 16.985,27.459 33.797,44.285 44.271,33.811 27.46,16.985 		"/>
		<polygon fill="#FFFFFF" points="44.445,66.03 33.971,55.556 16.985,72.541 0,55.556 0,100 44.445,100 27.46,83.015 		"/>
		<polygon fill="#FFFFFF" points="100,0 55.556,0 72.54,16.985 55.7,33.811 66.175,44.285 83.015,27.459 100,44.444 		"/>
	</g>
</g>
<g>
</g>
<g>
</g>
<g>
</g>
<g>
</g>
<g>
</g>
<g>
</g>
</svg>
