<?xml version="1.0" encoding="utf-8"?>
<!-- Generator: Adobe Illustrator 16.0.0, SVG Export Plug-In . SVG Version: 6.00 Build 0)  -->
<!DOCTYPE svg PUBLIC "-//W3C//DTD SVG 1.1//EN" "http://www.w3.org/Graphics/SVG/1.1/DTD/svg11.dtd">
<svg version="1.1" id="Layer_1" xmlns="http://www.w3.org/2000/svg" xmlns:xlink="http://www.w3.org/1999/xlink" x="0px" y="0px"
	 width="100px" height="100px" viewBox="0 0 100 100" enable-background="new 0 0 100 100" xml:space="preserve">
<path fill="#FFFFFF" d="M100,50c0-27.614-22.388-50-50-50C22.386,0,0,22.386,0,50c0,27.613,22.386,50,50,50
	C77.612,100,100,77.613,100,50z M49.907,22.727c3.137,0,5.682,2.545,5.682,5.682c0,3.136-2.545,5.682-5.682,5.682
	c-3.136,0-5.681-2.545-5.681-5.682C44.227,25.272,46.771,22.727,49.907,22.727z M37.407,75h6.819V43.182h-6.819v-4.545h18.182V75
	h6.818v4.545h-25V75z"/>
<g>
</g>
<g>
</g>
<g>
</g>
<g>
</g>
<g>
</g>
<g>
</g>
</svg>
