<?xml version="1.0" encoding="utf-8"?>
<!-- Generator: Adobe Illustrator 16.0.0, SVG Export Plug-In . SVG Version: 6.00 Build 0)  -->
<!DOCTYPE svg PUBLIC "-//W3C//DTD SVG 1.1//EN" "http://www.w3.org/Graphics/SVG/1.1/DTD/svg11.dtd">
<svg version="1.1" id="Layer_1" xmlns="http://www.w3.org/2000/svg" xmlns:xlink="http://www.w3.org/1999/xlink" x="0px" y="0px"
	 width="100px" height="100px" viewBox="0 0 100 100" enable-background="new 0 0 100 100" xml:space="preserve">
<path id="Facebook_Places" fill="#E1E1E1" d="M82.816,24.889c-0.354-1.334-1.078-2.756-1.612-4C74.805,5.511,60.823,0,49.534,0
	C34.422,0,17.777,10.134,15.556,31.021v4.268c0,0.178,0.061,1.778,0.148,2.578c1.245,9.955,9.1,20.533,14.967,30.488
	c6.312,10.666,12.86,21.156,19.35,31.645c4-6.844,7.986-13.777,11.896-20.443c1.063-1.957,2.302-3.912,3.369-5.779
	c0.71-1.243,2.067-2.486,2.688-3.645c6.312-11.555,16.469-23.199,16.469-34.666v-4.71C84.443,29.513,82.902,25.157,82.816,24.889z
	 M49.812,46.312c-4.443,0-9.305-2.221-11.705-8.356c-0.357-0.977-0.329-2.934-0.329-3.112v-2.756c0-7.82,6.641-11.376,12.417-11.376
	c7.112,0,12.612,5.689,12.612,12.801C62.807,40.624,56.923,46.312,49.812,46.312z"/>
</svg>
