<?xml version="1.0" encoding="utf-8"?>
<!-- Generator: Adobe Illustrator 16.0.0, SVG Export Plug-In . SVG Version: 6.00 Build 0)  -->
<!DOCTYPE svg PUBLIC "-//W3C//DTD SVG 1.1//EN" "http://www.w3.org/Graphics/SVG/1.1/DTD/svg11.dtd">
<svg version="1.1" id="Layer_1" xmlns="http://www.w3.org/2000/svg" xmlns:xlink="http://www.w3.org/1999/xlink" x="0px" y="0px"
	 width="100px" height="100px" viewBox="0 0 100 100" enable-background="new 0 0 100 100" xml:space="preserve">
<g>
	<path fill="none" d="M75.893,54.413c-0.189,0.85-0.34,1.62-0.49,2.17c-2.93,11.34-13.18,19.72-25.43,19.72s-22.5-8.38-25.43-19.72
		c-0.141-0.53-0.221-1.3-0.301-2.17h10.051c1.92,6.87,8.209,11.92,15.68,11.92c7.46,0,13.76-5.05,15.68-11.92H75.893z"/>
	<path fill="none" d="M75.902,45.653h-10.27c-1.91-6.86-8.2-11.91-15.66-11.91s-13.74,5.05-15.67,11.91h-10.07
		c0.08-0.891,0.17-1.69,0.311-2.23c2.93-11.34,13.18-19.729,25.43-19.729s22.5,8.39,25.43,19.729
		C75.553,43.983,75.713,44.783,75.902,45.653z"/>
	<path fill="#FFFFFF" d="M24.539,43.419c2.93-11.338,13.179-19.723,25.435-19.723c12.253,0,22.504,8.382,25.433,19.723
		c0.146,0.564,0.311,1.365,0.5,2.236h24.041c-0.088-1.758-0.385-3.649-0.532-4.476C95.229,17.652,74.701-0.215,49.974-0.215
		c-24.726,0-45.257,17.869-49.438,41.395c-0.125,0.695-0.356,2.547-0.482,4.476h24.184C24.314,44.759,24.398,43.964,24.539,43.419z"
		/>
	<path fill="#FFFFFF" d="M66.022,47.354c-0.1-0.58-0.229-1.141-0.39-1.7c-1.91-6.86-8.2-11.91-15.66-11.91s-13.74,5.05-15.67,11.91
		c-0.16,0.56-0.301,1.12-0.391,1.7c-0.149,0.89-0.229,1.779-0.229,2.68c0,1.52,0.22,2.99,0.61,4.38
		c1.92,6.87,8.209,11.92,15.68,11.92c7.46,0,13.76-5.05,15.68-11.92c0.391-1.39,0.61-2.86,0.61-4.38
		C66.263,49.133,66.162,48.243,66.022,47.354z M49.973,58.243c-2.91,0-5.471-1.53-6.93-3.83c-0.801-1.27-1.28-2.76-1.28-4.38
		c0-0.95,0.19-1.83,0.5-2.68c0.21-0.601,0.51-1.16,0.851-1.7c1.439-2.28,3.949-3.83,6.859-3.83s5.42,1.55,6.87,3.83
		c0.34,0.54,0.64,1.1,0.851,1.7c0.299,0.85,0.489,1.729,0.489,2.68c0,1.62-0.47,3.11-1.28,4.38
		C55.443,56.713,52.883,58.243,49.973,58.243z"/>
	<path fill="#FFFFFF" d="M75.406,56.583c-2.929,11.345-13.18,19.724-25.433,19.724c-12.256,0-22.505-8.383-25.435-19.724
		c-0.137-0.53-0.221-1.3-0.297-2.167H0.057c0.127,1.904,0.355,3.721,0.479,4.407c4.182,23.523,24.713,41.392,49.438,41.392
		c24.729,0,45.259-17.865,49.441-41.392c0.146-0.816,0.436-2.668,0.527-4.407H75.892C75.707,55.261,75.549,56.034,75.406,56.583z"/>
</g>
<g>
</g>
<g>
</g>
<g>
</g>
<g>
</g>
<g>
</g>
<g>
</g>
</svg>
