<?xml version="1.0" encoding="utf-8"?>
<!-- Generator: Adobe Illustrator 16.0.0, SVG Export Plug-In . SVG Version: 6.00 Build 0)  -->
<!DOCTYPE svg PUBLIC "-//W3C//DTD SVG 1.1//EN" "http://www.w3.org/Graphics/SVG/1.1/DTD/svg11.dtd">
<svg version="1.1" id="Layer_1" xmlns="http://www.w3.org/2000/svg" xmlns:xlink="http://www.w3.org/1999/xlink" x="0px" y="0px"
	 width="100px" height="100px" viewBox="0 0 100 100" enable-background="new 0 0 100 100" xml:space="preserve">
<g>
	<path fill="#E1E1E1" d="M99.999,21.358L91.658,29.7L78.652,42.705V29.7l-7.346-0.387c-2.045,0-3.9,0.313-5.562,0.957
		c-1.664,0.636-3.131,1.602-4.41,2.881c-1.279,1.279-2.371,2.59-3.266,3.932c-0.896,1.342-1.854,2.99-2.873,4.952
		c-1.364,2.645-3.027,6.287-4.99,10.933c-1.232,2.817-2.292,5.181-3.163,7.103c-0.871,1.914-2.024,4.152-3.452,6.711
		c-1.43,2.559-2.795,4.693-4.09,6.396c-1.303,1.703-2.881,3.478-4.732,5.306c-1.853,1.836-3.775,3.297-5.752,4.379
		c-1.986,1.092-4.255,1.986-6.813,2.686c-2.558,0.706-5.288,1.059-8.186,1.059H0V70.236h14.017c2.04,0,3.901-0.322,5.565-0.959
		c1.656-0.637,3.131-1.603,4.41-2.881c1.279-1.279,2.362-2.59,3.257-3.933c0.896-1.342,1.86-2.989,2.88-4.95
		c1.367-2.646,3.03-6.289,4.984-10.934c1.24-2.818,2.291-5.181,3.17-7.104c0.871-1.914,2.025-4.151,3.453-6.709
		c1.428-2.56,2.786-4.694,4.09-6.396c1.302-1.704,2.881-3.478,4.73-5.307c1.854-1.836,3.776-3.296,5.754-4.379
		c1.985-1.091,4.254-1.985,6.812-2.684c2.56-0.706,5.289-1.06,8.187-1.06l7.344,0.388V0.003l13.326,13.326L99.999,21.358z"/>
	<g>
		<path fill="#E1E1E1" d="M36.498,29.841c0.859-1.54,1.687-2.915,2.497-4.164c-6.63-8.487-14.955-12.734-24.98-12.734H0v16.368
			h14.015c1.876,0,3.612,0.31,5.212,0.928c1.598,0.619,2.941,1.364,4.027,2.239c1.087,0.874,2.174,2.077,3.262,3.611
			c1.086,1.536,1.951,2.89,2.59,4.062c0.362,0.666,0.779,1.467,1.239,2.374c0.953-2.158,1.775-3.998,2.481-5.543
			C33.758,34.934,34.961,32.595,36.498,29.841z"/>
		<path fill="#E1E1E1" d="M78.652,57.295v13.328l-7.344-0.389c-1.875,0-3.619-0.305-5.211-0.926
			c-1.603-0.621-2.943-1.367-4.035-2.238c-1.082-0.87-2.174-2.079-3.256-3.608c-1.093-1.539-1.953-2.896-2.592-4.065
			c-0.365-0.666-0.781-1.465-1.24-2.371c-0.945,2.145-1.77,3.979-2.468,5.521c-0.942,2.072-2.146,4.411-3.68,7.159
			c-0.838,1.501-1.668,2.876-2.484,4.136c0.777,1.017,1.574,1.96,2.395,2.82c1.23,1.303,2.409,2.44,3.516,3.422
			c1.105,0.981,2.361,1.829,3.766,2.56c1.414,0.721,2.646,1.325,3.713,1.82c1.068,0.486,2.41,0.887,4.035,1.186
			c1.617,0.291,2.982,0.519,4.088,0.666c1.106,0.148,2.621,0.252,4.537,0.321l6.26,0.356v13.005L100,78.648l-8.021-8.027
			L78.652,57.295z"/>
	</g>
</g>
</svg>
