<?xml version="1.0" encoding="utf-8"?>
<!-- Generator: Adobe Illustrator 16.0.0, SVG Export Plug-In . SVG Version: 6.00 Build 0)  -->
<!DOCTYPE svg PUBLIC "-//W3C//DTD SVG 1.1//EN" "http://www.w3.org/Graphics/SVG/1.1/DTD/svg11.dtd">
<svg version="1.1" id="Layer_1" xmlns="http://www.w3.org/2000/svg" xmlns:xlink="http://www.w3.org/1999/xlink" x="0px" y="0px"
	 width="100px" height="100px" viewBox="0 0 100 100" enable-background="new 0 0 100 100" xml:space="preserve">
<g>
	<path fill="#E1E1E1" d="M37.757,0C17.382,0,0.802,16.575,0.802,36.951c0,20.377,16.578,36.951,36.953,36.951
		c20.374,0,36.952-16.574,36.952-36.951C74.707,16.575,58.129,0,37.757,0z M37.757,64.627c-15.261,0-27.677-12.415-27.677-27.676
		c0-15.26,12.416-27.675,27.677-27.675s27.675,12.415,27.675,27.675C65.432,52.212,53.016,64.627,37.757,64.627z"/>
	<g>
		<path fill="#E1E1E1" d="M99.197,91.832L71.145,63.773c-2.424,3.013-5.246,5.688-8.387,7.951L91.029,100L99.197,91.832z"/>
	</g>
</g>
</svg>
