<?xml version="1.0" encoding="utf-8"?>
<!-- Generator: Adobe Illustrator 16.0.0, SVG Export Plug-In . SVG Version: 6.00 Build 0)  -->
<!DOCTYPE svg PUBLIC "-//W3C//DTD SVG 1.1//EN" "http://www.w3.org/Graphics/SVG/1.1/DTD/svg11.dtd">
<svg version="1.1" id="Layer_1" xmlns="http://www.w3.org/2000/svg" xmlns:xlink="http://www.w3.org/1999/xlink" x="0px" y="0px"
	 width="100px" height="100px" viewBox="0 0 100 100" enable-background="new 0 0 100 100" xml:space="preserve">
<g>
	<path fill="#FFFFFF" d="M18.771,62.224c-0.746-1.933-1.324-3.88-1.73-5.849L2.909,68.438l18.56-0.746
		C20.437,65.975,19.525,64.156,18.771,62.224z"/>
	<path fill="#FFFFFF" d="M24.638,72.003l-6.203,17.516l15.703-9.922c-1.748-0.97-3.447-2.104-5.064-3.389
		C27.452,74.904,25.974,73.5,24.638,72.003z"/>
	<path fill="#FFFFFF" d="M81.229,37.776c0.75,1.932,1.328,3.887,1.727,5.848l14.135-12.062l-18.562,0.739
		C79.563,34.021,80.468,35.84,81.229,37.776z"/>
	<path fill="#FFFFFF" d="M75.362,27.997l6.203-17.516l-15.703,9.922c1.756,0.97,3.454,2.104,5.075,3.389
		C72.552,25.088,74.026,26.493,75.362,27.997z"/>
	<path fill="#FFFFFF" d="M60.964,18.27L57.583,0l-8.645,16.447c2.002-0.044,4.037,0.087,6.09,0.402
		C57.071,17.157,59.058,17.64,60.964,18.27z"/>
	<path fill="#FFFFFF" d="M37.784,18.775c1.917-0.754,3.875-1.329,5.844-1.735L31.565,2.902l0.74,18.562
		C34.021,20.437,35.844,19.529,37.784,18.775z"/>
	<path fill="#FFFFFF" d="M23.8,29.066c1.303-1.611,2.701-3.089,4.197-4.421l-17.508-6.207l9.925,15.704
		C21.377,32.389,22.504,30.688,23.8,29.066z"/>
	<path fill="#FFFFFF" d="M16.843,44.979c0.314-2.05,0.79-4.033,1.424-5.937L0,42.413l16.447,8.648
		C16.407,49.056,16.534,47.021,16.843,44.979z"/>
	<path fill="#FFFFFF" d="M39.039,81.737L42.421,100l8.637-16.447c-2.002,0.044-4.033-0.087-6.09-0.402
		C42.929,82.839,40.942,82.359,39.039,81.737z"/>
	<path fill="#FFFFFF" d="M62.224,81.225c-1.928,0.755-3.887,1.329-5.855,1.743l12.066,14.13l-0.736-18.562
		C65.979,79.567,64.156,80.471,62.224,81.225z"/>
	<path fill="#FFFFFF" d="M76.2,70.934c-1.295,1.618-2.697,3.089-4.193,4.429l17.508,6.2l-9.918-15.697
		C78.627,67.611,77.499,69.309,76.2,70.934z"/>
	<path fill="#FFFFFF" d="M83.157,55.028c-0.314,2.042-0.794,4.026-1.423,5.929L100,57.587l-16.446-8.648
		C83.597,50.944,83.466,52.979,83.157,55.028z"/>
	<path fill="#FFFFFF" d="M54.029,23.459c-14.672-2.218-28.345,7.854-30.573,22.515c-2.222,14.668,7.861,28.341,22.521,30.567
		c14.662,2.225,28.346-7.854,30.57-22.516C78.766,39.364,68.687,25.685,54.029,23.459z"/>
</g>
<g>
</g>
<g>
</g>
<g>
</g>
<g>
</g>
<g>
</g>
<g>
</g>
</svg>
