<?xml version="1.0" encoding="utf-8"?>
<!-- Generator: Adobe Illustrator 16.0.0, SVG Export Plug-In . SVG Version: 6.00 Build 0)  -->
<!DOCTYPE svg PUBLIC "-//W3C//DTD SVG 1.1//EN" "http://www.w3.org/Graphics/SVG/1.1/DTD/svg11.dtd">
<svg version="1.1" id="Layer_1" xmlns="http://www.w3.org/2000/svg" xmlns:xlink="http://www.w3.org/1999/xlink" x="0px" y="0px"
	 width="100px" height="100px" viewBox="0 0 100 100" enable-background="new 0 0 100 100" xml:space="preserve">
<g>
	<path fill="#E1E1E1" d="M18.771,62.225c-0.746-1.934-1.324-3.881-1.73-5.85L2.909,68.438l18.56-0.746
		C20.437,65.975,19.525,64.156,18.771,62.225z"/>
	<path fill="#E1E1E1" d="M24.638,72.003L18.435,89.52l15.703-9.922c-1.748-0.971-3.447-2.104-5.064-3.39
		C27.452,74.904,25.974,73.5,24.638,72.003z"/>
	<path fill="#E1E1E1" d="M81.229,37.776c0.75,1.932,1.328,3.887,1.728,5.848l14.135-12.062l-18.562,0.739
		C79.562,34.021,80.468,35.84,81.229,37.776z"/>
	<path fill="#E1E1E1" d="M75.361,27.997l6.203-17.516l-15.703,9.922c1.757,0.97,3.455,2.104,5.076,3.389
		C72.552,25.088,74.025,26.493,75.361,27.997z"/>
	<path fill="#E1E1E1" d="M60.964,18.27L57.583,0l-8.645,16.447c2.001-0.044,4.037,0.087,6.089,0.402
		C57.07,17.157,59.059,17.64,60.964,18.27z"/>
	<path fill="#E1E1E1" d="M37.784,18.775c1.917-0.754,3.875-1.329,5.844-1.735L31.565,2.902l0.74,18.562
		C34.021,20.437,35.844,19.529,37.784,18.775z"/>
	<path fill="#E1E1E1" d="M23.8,29.066c1.303-1.611,2.701-3.089,4.197-4.421l-17.508-6.207l9.925,15.704
		C21.377,32.389,22.504,30.688,23.8,29.066z"/>
	<path fill="#E1E1E1" d="M16.843,44.979c0.314-2.05,0.79-4.033,1.424-5.937L0,42.413l16.447,8.647
		C16.407,49.056,16.534,47.021,16.843,44.979z"/>
	<path fill="#E1E1E1" d="M39.039,81.736L42.421,100l8.638-16.447c-2.002,0.045-4.034-0.087-6.091-0.402
		C42.929,82.839,40.942,82.359,39.039,81.736z"/>
	<path fill="#E1E1E1" d="M62.225,81.225c-1.929,0.756-3.888,1.33-5.855,1.743l12.066,14.13l-0.736-18.562
		C65.979,79.566,64.156,80.471,62.225,81.225z"/>
	<path fill="#E1E1E1" d="M76.2,70.934c-1.296,1.618-2.697,3.09-4.193,4.43l17.509,6.199l-9.918-15.696
		C78.627,67.611,77.499,69.309,76.2,70.934z"/>
	<path fill="#E1E1E1" d="M83.157,55.027c-0.314,2.043-0.794,4.027-1.423,5.93L100,57.587l-16.445-8.648
		C83.598,50.943,83.466,52.979,83.157,55.027z"/>
	<path fill="#E1E1E1" d="M54.029,23.459c-14.672-2.218-28.345,7.854-30.573,22.515c-2.222,14.668,7.861,28.34,22.521,30.567
		c14.662,2.225,28.346-7.854,30.57-22.516C78.766,39.364,68.688,25.685,54.029,23.459z"/>
</g>
</svg>
