<?xml version="1.0" encoding="utf-8"?>
<!-- Generator: Adobe Illustrator 16.0.0, SVG Export Plug-In . SVG Version: 6.00 Build 0)  -->
<!DOCTYPE svg PUBLIC "-//W3C//DTD SVG 1.1//EN" "http://www.w3.org/Graphics/SVG/1.1/DTD/svg11.dtd">
<svg version="1.1" id="Layer_1" xmlns="http://www.w3.org/2000/svg" xmlns:xlink="http://www.w3.org/1999/xlink" x="0px" y="0px"
	 width="100px" height="100px" viewBox="0 0 100 100" enable-background="new 0 0 100 100" xml:space="preserve">
<g>
	<path fill="#E1E1E1" d="M35.499,45.689c11.399,0,21.303-9.897,21.303-21.301c0-11.404-9.904-21.301-21.303-21.301
		c-11.403,0-21.302,9.897-21.302,21.301C14.197,35.792,24.096,45.689,35.499,45.689z"/>
	<path fill="#E1E1E1" d="M35.499,52.789c-18.659,0-35.502,20.131-35.502,45.146H71C71,72.92,54.158,52.789,35.499,52.789z"/>
	<g>
		<path fill="#E1E1E1" d="M58.154,38.826c2.771,1.539,5.911,2.428,9.186,2.428c10.486,0,19.595-9.105,19.595-19.594
			c0-10.49-9.107-19.596-19.595-19.596c-4.425,0-8.594,1.634-11.946,4.295c4.389,4.82,7.101,11.176,7.101,18.032
			C62.493,29.654,60.886,34.619,58.154,38.826z"/>
		<path fill="#E1E1E1" d="M76.067,89.314h23.93c0-23.015-15.493-41.53-32.657-41.53c-5.003,0-9.86,1.582-14.235,4.381
			C64.869,59.254,73.713,73.098,76.067,89.314z"/>
	</g>
</g>
</svg>
