<?xml version="1.0" encoding="utf-8"?>
<!-- Generator: Adobe Illustrator 16.0.0, SVG Export Plug-In . SVG Version: 6.00 Build 0)  -->
<!DOCTYPE svg PUBLIC "-//W3C//DTD SVG 1.1//EN" "http://www.w3.org/Graphics/SVG/1.1/DTD/svg11.dtd">
<svg version="1.1" id="Layer_1" xmlns="http://www.w3.org/2000/svg" xmlns:xlink="http://www.w3.org/1999/xlink" x="0px" y="0px"
	 width="100px" height="100px" viewBox="0 0 100 100" enable-background="new 0 0 100 100" xml:space="preserve">
<g>
	<path fill="#FFFFFF" d="M35.502,45.689c11.399,0,21.302-9.897,21.302-21.301S46.901,3.087,35.502,3.087
		c-11.403,0-21.302,9.897-21.302,21.301S24.099,45.689,35.502,45.689z"/>
	<path fill="#FFFFFF" d="M35.502,52.789C16.843,52.789,0,72.92,0,97.936h71.003C71.003,72.92,54.161,52.789,35.502,52.789z"/>
	<g>
		<path fill="#FFFFFF" d="M58.157,38.826c2.771,1.539,5.911,2.428,9.186,2.428c10.486,0,19.595-9.105,19.595-19.594
			c0-10.49-9.108-19.596-19.595-19.596c-4.425,0-8.594,1.634-11.946,4.295c4.388,4.82,7.1,11.176,7.1,18.032
			C62.496,29.654,60.888,34.619,58.157,38.826z"/>
		<path fill="#FFFFFF" d="M76.071,89.314H100c0-23.014-15.493-41.53-32.657-41.53c-5.003,0-9.86,1.582-14.236,4.381
			C64.872,59.254,73.716,73.098,76.071,89.314z"/>
	</g>
</g>
<g>
</g>
<g>
</g>
<g>
</g>
<g>
</g>
<g>
</g>
<g>
</g>
</svg>
